<svg version="1.1" xmlns="http://www.w3.org/2000/svg" viewBox="0 0 4573.9786710781555 3224.293462453898" width="9147.957342156311" height="6448.586924907796">
  <!-- svg-source:excalidraw -->
  
  <defs>
    <style class="style-fonts">
      @font-face {
        font-family: "Virgil";
        src: url("https://excalidraw.com/Virgil.woff2");
      }
      @font-face {
        font-family: "Cascadia";
        src: url("https://excalidraw.com/Cascadia.woff2");
      }
      @font-face {
        font-family: "Assistant";
        src: url("https://excalidraw.com/Assistant-Regular.woff2");
      }
    </style>
    
  </defs>
  <rect x="0" y="0" width="4573.9786710781555" height="3224.293462453898" fill="#ffffff"></rect><g stroke-linecap="round" transform="translate(2753.4741630482404 304.370116225072) rotate(0 234 83)"><path d="M32 0 C180 0, 328.01 0, 436 0 M32 0 C149.35 0, 266.69 0, 436 0 M436 0 C457.33 0, 468 10.67, 468 32 M436 0 C457.33 0, 468 10.67, 468 32 M468 32 C468 71.75, 468 111.49, 468 134 M468 32 C468 64.11, 468 96.22, 468 134 M468 134 C468 155.33, 457.33 166, 436 166 M468 134 C468 155.33, 457.33 166, 436 166 M436 166 C332.5 166, 229 166, 32 166 M436 166 C316.82 166, 197.63 166, 32 166 M32 166 C10.67 166, 0 155.33, 0 134 M32 166 C10.67 166, 0 155.33, 0 134 M0 134 C0 93.37, 0 52.74, 0 32 M0 134 C0 111.69, 0 89.38, 0 32 M0 32 C0 10.67, 10.67 0, 32 0 M0 32 C0 10.67, 10.67 0, 32 0" stroke="#1e1e1e" stroke-width="4" fill="none"></path></g><g transform="translate(2848.9507255482404 355.170116225072) rotate(0 138.5234375 32.200000000000045)"><text x="138.5234375" y="0" font-family="Helvetica, Segoe UI Emoji" font-size="56px" fill="#1e1e1e" text-anchor="middle" style="white-space: pre;" direction="ltr" dominant-baseline="text-before-edge">NapierPool</text></g><g stroke-linecap="round" transform="translate(2733.122932223462 655.8532536332923) rotate(0 234 83)"><path d="M32 0 C135.62 0, 239.25 0, 436 0 M32 0 C139.58 0, 247.17 0, 436 0 M436 0 C457.33 0, 468 10.67, 468 32 M436 0 C457.33 0, 468 10.67, 468 32 M468 32 C468 59.29, 468 86.58, 468 134 M468 32 C468 65.56, 468 99.13, 468 134 M468 134 C468 155.33, 457.33 166, 436 166 M468 134 C468 155.33, 457.33 166, 436 166 M436 166 C288.38 166, 140.75 166, 32 166 M436 166 C283.54 166, 131.09 166, 32 166 M32 166 C10.67 166, 0 155.33, 0 134 M32 166 C10.67 166, 0 155.33, 0 134 M0 134 C0 93.84, 0 53.68, 0 32 M0 134 C0 101.92, 0 69.83, 0 32 M0 32 C0 10.67, 10.67 0, 32 0 M0 32 C0 10.67, 10.67 0, 32 0" stroke="#1e1e1e" stroke-width="4" fill="none"></path></g><g transform="translate(2828.599494723462 706.6532536332923) rotate(0 138.5234375 32.19999999999993)"><text x="138.5234375" y="0" font-family="Helvetica, Segoe UI Emoji" font-size="56px" fill="#1e1e1e" text-anchor="middle" style="white-space: pre;" direction="ltr" dominant-baseline="text-before-edge">NapierPool</text></g><g stroke-linecap="round" transform="translate(3325.3950536306575 302.73747702364426) rotate(0 234 83)"><path d="M32 0 C145.94 0, 259.88 0, 436 0 M32 0 C141.21 0, 250.42 0, 436 0 M436 0 C457.33 0, 468 10.67, 468 32 M436 0 C457.33 0, 468 10.67, 468 32 M468 32 C468 64.31, 468 96.61, 468 134 M468 32 C468 63.86, 468 95.73, 468 134 M468 134 C468 155.33, 457.33 166, 436 166 M468 134 C468 155.33, 457.33 166, 436 166 M436 166 C286.59 166, 137.18 166, 32 166 M436 166 C353.51 166, 271.02 166, 32 166 M32 166 C10.67 166, 0 155.33, 0 134 M32 166 C10.67 166, 0 155.33, 0 134 M0 134 C0 105.75, 0 77.49, 0 32 M0 134 C0 110.01, 0 86.03, 0 32 M0 32 C0 10.67, 10.67 0, 32 0 M0 32 C0 10.67, 10.67 0, 32 0" stroke="#1e1e1e" stroke-width="4" fill="none"></path></g><g transform="translate(3423.9751317556575 321.33747702364417) rotate(0 135.419921875 64.39999999999998)"><text x="135.419921875" y="0" font-family="Helvetica, Segoe UI Emoji" font-size="56px" fill="#1e1e1e" text-anchor="middle" style="white-space: pre;" direction="ltr" dominant-baseline="text-before-edge">Base Pool </text><text x="135.419921875" y="64.39999999999999" font-family="Helvetica, Segoe UI Emoji" font-size="56px" fill="#1e1e1e" text-anchor="middle" style="white-space: pre;" direction="ltr" dominant-baseline="text-before-edge">(Tricrypto)</text></g><g stroke-linecap="round" transform="translate(3346.4436282329452 665.5919178752529) rotate(0 234 83)"><path d="M32 0 C137.19 0, 242.37 0, 436 0 M32 0 C183.42 0, 334.85 0, 436 0 M436 0 C457.33 0, 468 10.67, 468 32 M436 0 C457.33 0, 468 10.67, 468 32 M468 32 C468 55.66, 468 79.32, 468 134 M468 32 C468 57.41, 468 82.82, 468 134 M468 134 C468 155.33, 457.33 166, 436 166 M468 134 C468 155.33, 457.33 166, 436 166 M436 166 C327.06 166, 218.13 166, 32 166 M436 166 C290.19 166, 144.39 166, 32 166 M32 166 C10.67 166, 0 155.33, 0 134 M32 166 C10.67 166, 0 155.33, 0 134 M0 134 C0 102.93, 0 71.86, 0 32 M0 134 C0 100.75, 0 67.49, 0 32 M0 32 C0 10.67, 10.67 0, 32 0 M0 32 C0 10.67, 10.67 0, 32 0" stroke="#1e1e1e" stroke-width="4" fill="none"></path></g><g transform="translate(3452.8030032329452 716.3919178752528) rotate(0 127.640625 32.19999999999993)"><text x="127.640625" y="0" font-family="Helvetica, Segoe UI Emoji" font-size="56px" fill="#1e1e1e" text-anchor="middle" style="white-space: pre;" direction="ltr" dominant-baseline="text-before-edge">Base Pool</text></g><g stroke-linecap="round" transform="translate(3995.0997637363744 483.2160545817985) rotate(0.29271051304582096 242.81348961415165 72.11768174437407)"><path d="M32 0 C181.12 0, 330.24 0, 453.63 0 M32 0 C178.05 0, 324.1 0, 453.63 0 M453.63 0 C474.96 0, 485.63 10.67, 485.63 32 M453.63 0 C474.96 0, 485.63 10.67, 485.63 32 M485.63 32 C485.63 53.13, 485.63 74.25, 485.63 112.24 M485.63 32 C485.63 58.86, 485.63 85.72, 485.63 112.24 M485.63 112.24 C485.63 133.57, 474.96 144.24, 453.63 144.24 M485.63 112.24 C485.63 133.57, 474.96 144.24, 453.63 144.24 M453.63 144.24 C330.34 144.24, 207.05 144.24, 32 144.24 M453.63 144.24 C332.46 144.24, 211.3 144.24, 32 144.24 M32 144.24 C10.67 144.24, 0 133.57, 0 112.24 M32 144.24 C10.67 144.24, 0 133.57, 0 112.24 M0 112.24 C0 87.26, 0 62.28, 0 32 M0 112.24 C0 89.09, 0 65.94, 0 32 M0 32 C0 10.67, 10.67 0, 32 0 M0 32 C0 10.67, 10.67 0, 32 0" stroke="#1e1e1e" stroke-width="4" fill="none"></path></g><g transform="translate(4001.6835170224012 488.5081434580045) rotate(0.29271051304582096 236.229736328125 66.8255928681682)"><text x="236.229736328125" y="0" font-family="Helvetica, Segoe UI Emoji" font-size="58.10921118971149px" fill="#1e1e1e" text-anchor="middle" style="white-space: pre;" direction="ltr" dominant-baseline="text-before-edge">Curve v2 Tricrypto</text><text x="236.229736328125" y="66.8255928681682" font-family="Helvetica, Segoe UI Emoji" font-size="58.10921118971149px" fill="#1e1e1e" text-anchor="middle" style="white-space: pre;" direction="ltr" dominant-baseline="text-before-edge">Factory</text></g><g stroke-linecap="round" transform="translate(2145.551552365888 533.342433107355) rotate(0 196.5 84)"><path d="M32 0 C124.83 0, 217.67 0, 361 0 M32 0 C124.11 0, 216.23 0, 361 0 M361 0 C382.33 0, 393 10.67, 393 32 M361 0 C382.33 0, 393 10.67, 393 32 M393 32 C393 60.3, 393 88.61, 393 136 M393 32 C393 61.54, 393 91.07, 393 136 M393 136 C393 157.33, 382.33 168, 361 168 M393 136 C393 157.33, 382.33 168, 361 168 M361 168 C242.37 168, 123.75 168, 32 168 M361 168 C283.37 168, 205.74 168, 32 168 M32 168 C10.67 168, 0 157.33, 0 136 M32 168 C10.67 168, 0 157.33, 0 136 M0 136 C0 104.05, 0 72.1, 0 32 M0 136 C0 98.71, 0 61.42, 0 32 M0 32 C0 10.67, 10.67 0, 32 0 M0 32 C0 10.67, 10.67 0, 32 0" stroke="#000000" stroke-width="4" fill="none"></path></g><g transform="translate(2200.662148069013 586.8674331073548) rotate(0 141.389404296875 30.475000000000023)"><text x="141.389404296875" y="0" font-family="Helvetica, Segoe UI Emoji" font-size="53px" fill="#000000" text-anchor="middle" style="white-space: pre;" direction="ltr" dominant-baseline="text-before-edge">PoolFactory</text></g><g stroke-linecap="round" transform="translate(855.2791738426679 1938.0841001724316) rotate(0 273.5 120)"><path d="M32 0 C140.15 0, 248.29 0, 515 0 M32 0 C194.84 0, 357.68 0, 515 0 M515 0 C536.33 0, 547 10.67, 547 32 M515 0 C536.33 0, 547 10.67, 547 32 M547 32 C547 88.73, 547 145.47, 547 208 M547 32 C547 98.05, 547 164.1, 547 208 M547 208 C547 229.33, 536.33 240, 515 240 M547 208 C547 229.33, 536.33 240, 515 240 M515 240 C343.85 240, 172.7 240, 32 240 M515 240 C338.33 240, 161.66 240, 32 240 M32 240 C10.67 240, 0 229.33, 0 208 M32 240 C10.67 240, 0 229.33, 0 208 M0 208 C0 166.78, 0 125.57, 0 32 M0 208 C0 145.52, 0 83.04, 0 32 M0 32 C0 10.67, 10.67 0, 32 0 M0 32 C0 10.67, 10.67 0, 32 0" stroke="#000000" stroke-width="4" fill="none"></path></g><g transform="translate(926.7703847801679 2024.7341001724317) rotate(0 202.0087890625 33.34999999999991)"><text x="202.0087890625" y="0" font-family="Helvetica, Segoe UI Emoji" font-size="58px" fill="#000000" text-anchor="middle" style="white-space: pre;" direction="ltr" dominant-baseline="text-before-edge">TrancheFactory</text></g><g stroke-linecap="round" transform="translate(3110.572491531774 1351.8218848192482) rotate(0 192.5 471.5)"><path d="M32 0 C129.89 0, 227.78 0, 353 0 M32 0 C102.53 0, 173.07 0, 353 0 M353 0 C374.33 0, 385 10.67, 385 32 M353 0 C374.33 0, 385 10.67, 385 32 M385 32 C385 226.6, 385 421.2, 385 911 M385 32 C385 220.48, 385 408.95, 385 911 M385 911 C385 932.33, 374.33 943, 353 943 M385 911 C385 932.33, 374.33 943, 353 943 M353 943 C273.96 943, 194.91 943, 32 943 M353 943 C238.71 943, 124.42 943, 32 943 M32 943 C10.67 943, 0 932.33, 0 911 M32 943 C10.67 943, 0 932.33, 0 911 M0 911 C0 691.72, 0 472.45, 0 32 M0 911 C0 564.09, 0 217.17, 0 32 M0 32 C0 10.67, 10.67 0, 32 0 M0 32 C0 10.67, 10.67 0, 32 0" stroke="#000000" stroke-width="4" fill="none"></path></g><g transform="translate(3169.650616531774 1786.521884819248) rotate(0 133.421875 36.799999999999955)"><text x="133.421875" y="0" font-family="Helvetica, Segoe UI Emoji" font-size="64px" fill="#000000" text-anchor="middle" style="white-space: pre;" direction="ltr" dominant-baseline="text-before-edge">AdapterA</text></g><g stroke-linecap="round" transform="translate(3104.6578445235336 2366.4342441862095) rotate(0 188 195.5)"><path d="M32 0 C109.77 0, 187.53 0, 344 0 M32 0 C115.29 0, 198.57 0, 344 0 M344 0 C365.33 0, 376 10.67, 376 32 M344 0 C365.33 0, 376 10.67, 376 32 M376 32 C376 108.65, 376 185.29, 376 359 M376 32 C376 153.23, 376 274.47, 376 359 M376 359 C376 380.33, 365.33 391, 344 391 M376 359 C376 380.33, 365.33 391, 344 391 M344 391 C264.13 391, 184.25 391, 32 391 M344 391 C254.03 391, 164.07 391, 32 391 M32 391 C10.67 391, 0 380.33, 0 359 M32 391 C10.67 391, 0 380.33, 0 359 M0 359 C0 282.22, 0 205.43, 0 32 M0 359 C0 258.76, 0 158.52, 0 32 M0 32 C0 10.67, 10.67 0, 32 0 M0 32 C0 10.67, 10.67 0, 32 0" stroke="#000000" stroke-width="4" fill="none"></path></g><g transform="translate(3171.7442703047836 2528.5842441862096) rotate(0 120.91357421875 33.34999999999991)"><text x="120.91357421875" y="0" font-family="Helvetica, Segoe UI Emoji" font-size="58px" fill="#000000" text-anchor="middle" style="white-space: pre;" direction="ltr" dominant-baseline="text-before-edge">AdapterB</text></g><g stroke-linecap="round" transform="translate(3909.4635779650716 1678.535113949266) rotate(0 308.5 170)"><path d="M32 0 C227.95 0, 423.91 0, 585 0 M32 0 C234.28 0, 436.55 0, 585 0 M585 0 C606.33 0, 617 10.67, 617 32 M585 0 C606.33 0, 617 10.67, 617 32 M617 32 C617 96.64, 617 161.27, 617 308 M617 32 C617 129.98, 617 227.96, 617 308 M617 308 C617 329.33, 606.33 340, 585 340 M617 308 C617 329.33, 606.33 340, 585 340 M585 340 C463.51 340, 342.02 340, 32 340 M585 340 C364.42 340, 143.84 340, 32 340 M32 340 C10.67 340, 0 329.33, 0 308 M32 340 C10.67 340, 0 329.33, 0 308 M0 308 C0 202.84, 0 97.69, 0 32 M0 308 C0 199.21, 0 90.41, 0 32 M0 32 C0 10.67, 10.67 0, 32 0 M0 32 C0 10.67, 10.67 0, 32 0" stroke="#000000" stroke-width="4" fill="none"></path></g><g transform="translate(3992.2506873400716 1781.835113949266) rotate(0 225.712890625 66.70000000000005)"><text x="225.712890625" y="0" font-family="Helvetica, Segoe UI Emoji" font-size="58px" fill="#000000" text-anchor="middle" style="white-space: pre;" direction="ltr" dominant-baseline="text-before-edge">External Lending </text><text x="225.712890625" y="66.69999999999999" font-family="Helvetica, Segoe UI Emoji" font-size="58px" fill="#000000" text-anchor="middle" style="white-space: pre;" direction="ltr" dominant-baseline="text-before-edge">procotol A</text></g><g stroke-linecap="round" transform="translate(3936.029723904285 2394.651283754166) rotate(0 294.5 169)"><path d="M32 0 C162.97 0, 293.93 0, 557 0 M32 0 C239.2 0, 446.4 0, 557 0 M557 0 C578.33 0, 589 10.67, 589 32 M557 0 C578.33 0, 589 10.67, 589 32 M589 32 C589 100.71, 589 169.43, 589 306 M589 32 C589 137.14, 589 242.27, 589 306 M589 306 C589 327.33, 578.33 338, 557 338 M589 306 C589 327.33, 578.33 338, 557 338 M557 338 C405.53 338, 254.06 338, 32 338 M557 338 C393.66 338, 230.33 338, 32 338 M32 338 C10.67 338, 0 327.33, 0 306 M32 338 C10.67 338, 0 327.33, 0 306 M0 306 C0 227.02, 0 148.04, 0 32 M0 306 C0 215.39, 0 124.78, 0 32 M0 32 C0 10.67, 10.67 0, 32 0 M0 32 C0 10.67, 10.67 0, 32 0" stroke="#000000" stroke-width="4" fill="none"></path></g><g transform="translate(4004.816833279285 2496.951283754166) rotate(0 225.712890625 66.70000000000005)"><text x="225.712890625" y="0" font-family="Helvetica, Segoe UI Emoji" font-size="58px" fill="#000000" text-anchor="middle" style="white-space: pre;" direction="ltr" dominant-baseline="text-before-edge">External Lending </text><text x="225.712890625" y="66.69999999999999" font-family="Helvetica, Segoe UI Emoji" font-size="58px" fill="#000000" text-anchor="middle" style="white-space: pre;" direction="ltr" dominant-baseline="text-before-edge">procotol B</text></g><g stroke-linecap="round" transform="translate(887.9061736310318 801.3083958273792) rotate(0 266.5 101)"><path d="M32 0 C184.08 0, 336.16 0, 501 0 M32 0 C147.19 0, 262.39 0, 501 0 M501 0 C522.33 0, 533 10.67, 533 32 M501 0 C522.33 0, 533 10.67, 533 32 M533 32 C533 65.71, 533 99.43, 533 170 M533 32 C533 70.93, 533 109.85, 533 170 M533 170 C533 191.33, 522.33 202, 501 202 M533 170 C533 191.33, 522.33 202, 501 202 M501 202 C332.35 202, 163.7 202, 32 202 M501 202 C396.05 202, 291.11 202, 32 202 M32 202 C10.67 202, 0 191.33, 0 170 M32 202 C10.67 202, 0 191.33, 0 170 M0 170 C0 116.33, 0 62.66, 0 32 M0 170 C0 129.89, 0 89.77, 0 32 M0 32 C0 10.67, 10.67 0, 32 0 M0 32 C0 10.67, 10.67 0, 32 0" stroke="#000000" stroke-width="4" fill="none"></path></g><g transform="translate(994.8212126935318 868.9583958273793) rotate(0 159.5849609375 33.34999999999991)"><text x="159.5849609375" y="0" font-family="Helvetica, Segoe UI Emoji" font-size="58px" fill="#000000" text-anchor="middle" style="white-space: pre;" direction="ltr" dominant-baseline="text-before-edge">SwapRouter</text></g><g stroke-linecap="round" transform="translate(893.460957350374 1034.3602132585838) rotate(0 266.5 101)"><path d="M32 0 C142.38 0, 252.75 0, 501 0 M32 0 C145.95 0, 259.89 0, 501 0 M501 0 C522.33 0, 533 10.67, 533 32 M501 0 C522.33 0, 533 10.67, 533 32 M533 32 C533 61.42, 533 90.84, 533 170 M533 32 C533 67.15, 533 102.3, 533 170 M533 170 C533 191.33, 522.33 202, 501 202 M533 170 C533 191.33, 522.33 202, 501 202 M501 202 C348.4 202, 195.79 202, 32 202 M501 202 C393.7 202, 286.39 202, 32 202 M32 202 C10.67 202, 0 191.33, 0 170 M32 202 C10.67 202, 0 191.33, 0 170 M0 170 C0 121.87, 0 73.74, 0 32 M0 170 C0 133.38, 0 96.76, 0 32 M0 32 C0 10.67, 10.67 0, 32 0 M0 32 C0 10.67, 10.67 0, 32 0" stroke="#000000" stroke-width="4" fill="none"></path></g><g transform="translate(967.595234694124 1102.010213258584) rotate(0 192.36572265625 33.34999999999991)"><text x="192.36572265625" y="0" font-family="Helvetica, Segoe UI Emoji" font-size="58px" fill="#000000" text-anchor="middle" style="white-space: pre;" direction="ltr" dominant-baseline="text-before-edge">TrancheRouter</text></g><g mask="url(#mask-4WIvatG6bsUzypKMKi1Hw)" stroke-linecap="round"><g transform="translate(2539.5697341840696 623.7290914538285) rotate(0 100.48827979409488 -113.53877592967956)"><path d="M0 0 C33.5 -37.85, 167.48 -189.23, 200.98 -227.08 M0 0 C33.5 -37.85, 167.48 -189.23, 200.98 -227.08" stroke="#000000" stroke-width="4" fill="none"></path></g><g transform="translate(2539.5697341840696 623.7290914538285) rotate(0 100.48827979409488 -113.53877592967956)"><path d="M189.98 -199.17 C194.06 -209.53, 198.14 -219.89, 200.98 -227.08 M189.98 -199.17 C194.33 -210.22, 198.69 -221.27, 200.98 -227.08" stroke="#000000" stroke-width="4" fill="none"></path></g><g transform="translate(2539.5697341840696 623.7290914538285) rotate(0 100.48827979409488 -113.53877592967956)"><path d="M174.61 -212.77 C184.4 -218.08, 194.18 -223.39, 200.98 -227.08 M174.61 -212.77 C185.05 -218.43, 195.49 -224.1, 200.98 -227.08" stroke="#000000" stroke-width="4" fill="none"></path></g></g><mask id="mask-4WIvatG6bsUzypKMKi1Hw"><rect x="0" y="0" fill="#fff" width="2840.5462937722596" height="950.8066433131876"></rect><rect x="2560.5191956187896" y="479.715315524149" fill="#000" width="159.07763671875" height="60.949999999999996" opacity="1"></rect></mask><g transform="translate(2560.5191956187896 479.7153155241492) rotate(0 79.538818359375 30.47499999999991)"><text x="79.538818359375" y="0" font-family="Helvetica, Segoe UI Emoji" font-size="53px" fill="#000000" text-anchor="middle" style="white-space: pre;" direction="ltr" dominant-baseline="text-before-edge">Create</text></g><g stroke-linecap="round"><g transform="translate(2534.4716105434545 640.0245430097916) rotate(0 94.0451148670383 49.446822685775714)"><path d="M0 0 C31.35 16.48, 156.74 82.41, 188.09 98.89 M0 0 C31.35 16.48, 156.74 82.41, 188.09 98.89" stroke="#000000" stroke-width="4" fill="none"></path></g><g transform="translate(2534.4716105434545 640.0245430097916) rotate(0 94.0451148670383 49.446822685775714)"><path d="M158.36 94.86 C169.52 96.37, 180.68 97.89, 188.09 98.89 M158.36 94.86 C167.74 96.13, 177.11 97.4, 188.09 98.89" stroke="#000000" stroke-width="4" fill="none"></path></g><g transform="translate(2534.4716105434545 640.0245430097916) rotate(0 94.0451148670383 49.446822685775714)"><path d="M167.91 76.69 C175.49 85.03, 183.06 93.36, 188.09 98.89 M167.91 76.69 C174.27 83.69, 180.64 90.69, 188.09 98.89" stroke="#000000" stroke-width="4" fill="none"></path></g></g><mask></mask><g stroke-linecap="round"><g transform="translate(3988.904208139026 521.0269553768412) rotate(0 -91.07704616853448 -66.87311503924161)"><path d="M0 0 C-30.36 -22.29, -151.8 -111.46, -182.15 -133.75 M0 0 C-30.36 -22.29, -151.8 -111.46, -182.15 -133.75" stroke="#000000" stroke-width="4" fill="none"></path></g><g transform="translate(3988.904208139026 521.0269553768412) rotate(0 -91.07704616853448 -66.87311503924161)"><path d="M-153.36 -125.33 C-164.27 -128.52, -175.18 -131.71, -182.15 -133.75 M-153.36 -125.33 C-164.24 -128.51, -175.13 -131.69, -182.15 -133.75" stroke="#000000" stroke-width="4" fill="none"></path></g><g transform="translate(3988.904208139026 521.0269553768412) rotate(0 -91.07704616853448 -66.87311503924161)"><path d="M-165.5 -108.79 C-171.81 -118.24, -178.12 -127.7, -182.15 -133.75 M-165.5 -108.79 C-171.8 -118.22, -178.09 -127.66, -182.15 -133.75" stroke="#000000" stroke-width="4" fill="none"></path></g></g><mask></mask><g stroke-linecap="round"><g transform="translate(3998.7189351660572 556.5270549098864) rotate(0 -89.61995029933189 88.29002378196378)"><path d="M0 0 C-29.87 29.43, -149.37 147.15, -179.24 176.58 M0 0 C-29.87 29.43, -149.37 147.15, -179.24 176.58" stroke="#000000" stroke-width="4" fill="none"></path></g><g transform="translate(3998.7189351660572 556.5270549098864) rotate(0 -89.61995029933189 88.29002378196378)"><path d="M-166.36 149.49 C-170.34 157.86, -174.32 166.23, -179.24 176.58 M-166.36 149.49 C-169.95 157.04, -173.54 164.59, -179.24 176.58" stroke="#000000" stroke-width="4" fill="none"></path></g><g transform="translate(3998.7189351660572 556.5270549098864) rotate(0 -89.61995029933189 88.29002378196378)"><path d="M-151.96 164.11 C-160.39 167.96, -168.81 171.81, -179.24 176.58 M-151.96 164.11 C-159.56 167.58, -167.17 171.06, -179.24 176.58" stroke="#000000" stroke-width="4" fill="none"></path></g></g><mask></mask><g mask="url(#mask-468pJFsex4h3J8aJWPpz9)" stroke-linecap="round"><g transform="translate(1421.2593331533249 2064.6958963900784) rotate(0 385.36258532260734 -229.10529579956437)"><path d="M0 0 C128.45 -76.37, 642.27 -381.84, 770.73 -458.21 M0 0 C128.45 -76.37, 642.27 -381.84, 770.73 -458.21" stroke="#000000" stroke-width="4" fill="none"></path></g><g transform="translate(1421.2593331533249 2064.6958963900784) rotate(0 385.36258532260734 -229.10529579956437)"><path d="M751.74 -434.98 C759.11 -444.01, 766.49 -453.03, 770.73 -458.21 M751.74 -434.98 C758.84 -443.68, 765.95 -452.37, 770.73 -458.21" stroke="#000000" stroke-width="4" fill="none"></path></g><g transform="translate(1421.2593331533249 2064.6958963900784) rotate(0 385.36258532260734 -229.10529579956437)"><path d="M741.25 -452.62 C752.7 -454.79, 764.15 -456.97, 770.73 -458.21 M741.25 -452.62 C752.28 -454.71, 763.31 -456.81, 770.73 -458.21" stroke="#000000" stroke-width="4" fill="none"></path></g></g><mask id="mask-468pJFsex4h3J8aJWPpz9"><rect x="0" y="0" fill="#fff" width="2291.9845037985397" height="2622.906487989207"></rect><rect x="1719.5794380071823" y="1802.240600590514" fill="#000" width="174.0849609375" height="66.69999999999999" opacity="1"></rect></mask><g transform="translate(1719.5794380071823 1802.2406005905136) rotate(0 87.04248046874994 33.34999999999991)"><text x="87.04248046875" y="0" font-family="Helvetica, Segoe UI Emoji" font-size="58px" fill="#000000" text-anchor="middle" style="white-space: pre;" direction="ltr" dominant-baseline="text-before-edge">Create</text></g><g mask="url(#mask-LCbC4gsg_baBcoXcmmCU-)" stroke-linecap="round"><g transform="translate(619.1484915880405 1341.3800883844156) rotate(0 784.6915877249173 60.08230276969948)"><path d="M0 0 C261.56 20.03, 1307.82 100.14, 1569.38 120.16 M0 0 C261.56 20.03, 1307.82 100.14, 1569.38 120.16" stroke="#000000" stroke-width="4" fill="none"></path></g><g transform="translate(619.1484915880405 1341.3800883844156) rotate(0 784.6915877249173 60.08230276969948)"><path d="M1540.49 128.24 C1550.62 125.41, 1560.75 122.58, 1569.38 120.16 M1540.49 128.24 C1550.56 125.43, 1560.62 122.61, 1569.38 120.16" stroke="#000000" stroke-width="4" fill="none"></path></g><g transform="translate(619.1484915880405 1341.3800883844156) rotate(0 784.6915877249173 60.08230276969948)"><path d="M1542.06 107.78 C1551.64 112.12, 1561.22 116.47, 1569.38 120.16 M1542.06 107.78 C1551.58 112.1, 1561.1 116.41, 1569.38 120.16" stroke="#000000" stroke-width="4" fill="none"></path></g></g><mask id="mask-LCbC4gsg_baBcoXcmmCU-"><rect x="0" y="0" fill="#fff" width="2288.531667037875" height="1561.5446939238145"></rect><rect x="1018.6130285317079" y="1368.1123911541154" fill="#000" width="770.4541015625" height="66.69999999999999" opacity="1"></rect></mask><g transform="translate(1018.6130285317079 1368.1123911541154) rotate(0 385.22705078125 33.34999999999968)"><text x="385.22705078125" y="0" font-family="Helvetica, Segoe UI Emoji" font-size="58px" fill="#000000" text-anchor="middle" style="white-space: pre;" direction="ltr" dominant-baseline="text-before-edge">Issue/redeem PT and YT ..etc</text></g><g stroke-linecap="round"><g transform="translate(1424.201318427818 899.1884179095573) rotate(0 637.7657743752037 -76.74829862077809)"><path d="M0 0 C212.59 -25.58, 1062.94 -127.91, 1275.53 -153.5 M0 0 C212.59 -25.58, 1062.94 -127.91, 1275.53 -153.5" stroke="#000000" stroke-width="4" fill="none"></path></g><g transform="translate(1424.201318427818 899.1884179095573) rotate(0 637.7657743752037 -76.74829862077809)"><path d="M1248.77 -139.94 C1254.36 -142.77, 1259.95 -145.61, 1275.53 -153.5 M1248.77 -139.94 C1257.64 -144.43, 1266.51 -148.93, 1275.53 -153.5" stroke="#000000" stroke-width="4" fill="none"></path></g><g transform="translate(1424.201318427818 899.1884179095573) rotate(0 637.7657743752037 -76.74829862077809)"><path d="M1246.32 -160.32 C1252.42 -158.89, 1258.53 -157.47, 1275.53 -153.5 M1246.32 -160.32 C1256 -158.06, 1265.68 -155.8, 1275.53 -153.5" stroke="#000000" stroke-width="4" fill="none"></path></g></g><mask></mask><g stroke-linecap="round"><g transform="translate(610.9694211024814 1300.5760936694478) rotate(0 135.5100620697989 -189.61717282390032)"><path d="M0 0 C45.17 -63.21, 225.85 -316.03, 271.02 -379.23 M0 0 C45.17 -63.21, 225.85 -316.03, 271.02 -379.23" stroke="#000000" stroke-width="4" fill="none"></path></g><g transform="translate(610.9694211024814 1300.5760936694478) rotate(0 135.5100620697989 -189.61717282390032)"><path d="M262.98 -350.33 C265.58 -359.69, 268.18 -369.04, 271.02 -379.23 M262.98 -350.33 C264.61 -356.21, 266.25 -362.08, 271.02 -379.23" stroke="#000000" stroke-width="4" fill="none"></path></g><g transform="translate(610.9694211024814 1300.5760936694478) rotate(0 135.5100620697989 -189.61717282390032)"><path d="M246.28 -362.26 C254.29 -367.76, 262.3 -373.25, 271.02 -379.23 M246.28 -362.26 C251.31 -365.71, 256.34 -369.16, 271.02 -379.23" stroke="#000000" stroke-width="4" fill="none"></path></g></g><mask></mask><g stroke-linecap="round"><g transform="translate(605.4973178857053 1315.9039385204983) rotate(0 134.36682200980522 -92.85213671114434)"><path d="M0 0 C44.79 -30.95, 223.94 -154.75, 268.73 -185.7 M0 0 C44.79 -30.95, 223.94 -154.75, 268.73 -185.7" stroke="#000000" stroke-width="4" fill="none"></path></g><g transform="translate(605.4973178857053 1315.9039385204983) rotate(0 134.36682200980522 -92.85213671114434)"><path d="M251.37 -161.24 C254.95 -166.28, 258.52 -171.31, 268.73 -185.7 M251.37 -161.24 C255.14 -166.55, 258.91 -171.86, 268.73 -185.7" stroke="#000000" stroke-width="4" fill="none"></path></g><g transform="translate(605.4973178857053 1315.9039385204983) rotate(0 134.36682200980522 -92.85213671114434)"><path d="M239.71 -178.12 C245.69 -179.68, 251.66 -181.24, 268.73 -185.7 M239.71 -178.12 C246.01 -179.77, 252.32 -181.41, 268.73 -185.7" stroke="#000000" stroke-width="4" fill="none"></path></g></g><mask></mask><g mask="url(#mask-gAXTEyOClCr18Q_1FqCHJ)" stroke-linecap="round"><g transform="translate(2143.665716508626 636.0434511660255) rotate(0 -358.0636756064116 -142.57105618397793)"><path d="M0 0 C-119.35 -47.52, -596.77 -237.62, -716.13 -285.14 M0 0 C-119.35 -47.52, -596.77 -237.62, -716.13 -285.14" stroke="#000000" stroke-width="4" fill="none"></path></g><g transform="translate(2143.665716508626 636.0434511660255) rotate(0 -358.0636756064116 -142.57105618397793)"><path d="M-686.14 -284.25 C-692.44 -284.43, -698.73 -284.62, -716.13 -285.14 M-686.14 -284.25 C-692.59 -284.44, -699.05 -284.63, -716.13 -285.14" stroke="#000000" stroke-width="4" fill="none"></path></g><g transform="translate(2143.665716508626 636.0434511660255) rotate(0 -358.0636756064116 -142.57105618397793)"><path d="M-693.73 -265.18 C-698.43 -269.37, -703.13 -273.56, -716.13 -285.14 M-693.73 -265.18 C-698.55 -269.48, -703.37 -273.77, -716.13 -285.14" stroke="#000000" stroke-width="4" fill="none"></path></g></g><mask id="mask-gAXTEyOClCr18Q_1FqCHJ"><rect x="0" y="0" fill="#fff" width="2959.793067721449" height="1021.1855635339814"></rect><rect x="1731.5624901209642" y="462.422394982048" fill="#000" width="108.0791015625" height="62.099999999999994" opacity="1"></rect></mask><g transform="translate(1731.5624901209642 462.42239498204776) rotate(0 54.03955078125 31.04999999999984)"><text x="54.03955078125" y="0" font-family="Helvetica, Segoe UI Emoji" font-size="54px" fill="#000000" text-anchor="middle" style="white-space: pre;" direction="ltr" dominant-baseline="text-before-edge">read</text></g><g mask="url(#mask-9y0NgJoWVMbARGG2WncLy)" stroke-linecap="round"><g transform="translate(499.90577611258186 1992.5032361136896) rotate(0 172.47841463072996 7.6621993411195035)"><path d="M0 0 C57.49 2.55, 287.46 12.77, 344.96 15.32 M0 0 C57.49 2.55, 287.46 12.77, 344.96 15.32" stroke="#000000" stroke-width="4" fill="none"></path></g><g transform="translate(499.90577611258186 1992.5032361136896) rotate(0 172.47841463072996 7.6621993411195035)"><path d="M316.34 24.32 C325.49 21.45, 334.63 18.57, 344.96 15.32 M316.34 24.32 C325.71 21.38, 335.09 18.43, 344.96 15.32" stroke="#000000" stroke-width="4" fill="none"></path></g><g transform="translate(499.90577611258186 1992.5032361136896) rotate(0 172.47841463072996 7.6621993411195035)"><path d="M317.25 3.82 C326.11 7.5, 334.96 11.18, 344.96 15.32 M317.25 3.82 C326.33 7.59, 335.4 11.36, 344.96 15.32" stroke="#000000" stroke-width="4" fill="none"></path></g></g><mask id="mask-9y0NgJoWVMbARGG2WncLy"><rect x="0" y="0" fill="#fff" width="944.8626053740418" height="2107.8276347959286"></rect><rect x="582.1131946495616" y="1966.8154354548087" fill="#000" width="180.5419921875" height="66.69999999999999" opacity="1"></rect></mask><g transform="translate(582.1131946495616 1966.8154354548092) rotate(0 90.27099609375023 33.34999999999991)"><text x="90.27099609375" y="0" font-family="Helvetica, Segoe UI Emoji" font-size="58px" fill="#000000" text-anchor="middle" style="white-space: pre;" direction="ltr" dominant-baseline="text-before-edge">Deploy</text></g><g mask="url(#mask-FF6-ru65-5gfgTNqgqAdZ)" stroke-linecap="round"><g transform="translate(590.7033110274165 2673.236399642271) rotate(0 791.7809257025964 1.5724582132959313)"><path d="M0 0 C263.93 0.52, 1319.63 2.62, 1583.56 3.14 M0 0 C263.93 0.52, 1319.63 2.62, 1583.56 3.14" stroke="#000000" stroke-width="4" fill="none"></path></g><g transform="translate(590.7033110274165 2673.236399642271) rotate(0 791.7809257025964 1.5724582132959313)"><path d="M1555.35 13.35 C1566.58 9.29, 1577.81 5.23, 1583.56 3.14 M1555.35 13.35 C1563.22 10.5, 1571.1 7.65, 1583.56 3.14" stroke="#000000" stroke-width="4" fill="none"></path></g><g transform="translate(590.7033110274165 2673.236399642271) rotate(0 791.7809257025964 1.5724582132959313)"><path d="M1555.39 -7.17 C1566.61 -3.06, 1577.82 1.04, 1583.56 3.14 M1555.39 -7.17 C1563.25 -4.29, 1571.12 -1.41, 1583.56 3.14" stroke="#000000" stroke-width="4" fill="none"></path></g></g><mask id="mask-FF6-ru65-5gfgTNqgqAdZ"><rect x="0" y="0" fill="#fff" width="2274.265162432609" height="2776.381316068863"></rect><rect x="1211.599471105013" y="2641.458857855567" fill="#000" width="341.76953125" height="66.69999999999999" opacity="1"></rect></mask><g transform="translate(1211.599471105013 2641.4588578555663) rotate(0 170.8847656249999 33.350000000000136)"><text x="170.884765625" y="0" font-family="Helvetica, Segoe UI Emoji" font-size="58px" fill="#000000" text-anchor="middle" style="white-space: pre;" direction="ltr" dominant-baseline="text-before-edge">Listen events</text></g><g mask="url(#mask-I57aPggeyDing0Dnk0O9u)" stroke-linecap="round"><g transform="translate(1415.5759164173821 2090.2747139145836) rotate(0 380.6707862401662 289.3127055795253)"><path d="M0 0 C126.89 96.44, 634.45 482.19, 761.34 578.63 M0 0 C126.89 96.44, 634.45 482.19, 761.34 578.63" stroke="#000000" stroke-width="4" fill="none"></path></g><g transform="translate(1415.5759164173821 2090.2747139145836) rotate(0 380.6707862401662 289.3127055795253)"><path d="M732.69 569.74 C742.6 572.81, 752.52 575.89, 761.34 578.63 M732.69 569.74 C739.72 571.92, 746.75 574.1, 761.34 578.63" stroke="#000000" stroke-width="4" fill="none"></path></g><g transform="translate(1415.5759164173821 2090.2747139145836) rotate(0 380.6707862401662 289.3127055795253)"><path d="M745.11 553.4 C750.72 562.13, 756.34 570.86, 761.34 578.63 M745.11 553.4 C749.09 559.59, 753.08 565.78, 761.34 578.63" stroke="#000000" stroke-width="4" fill="none"></path></g></g><mask id="mask-I57aPggeyDing0Dnk0O9u"><rect x="0" y="0" fill="#fff" width="2276.9174888977145" height="2768.900125073634"></rect><rect x="1716.7078842981732" y="2349.1124194941085" fill="#000" width="159.07763671875" height="60.949999999999996" opacity="1"></rect></mask><g transform="translate(1716.7078842981732 2349.1124194941094) rotate(0 79.538818359375 30.47499999999991)"><text x="79.538818359375" y="0" font-family="Helvetica, Segoe UI Emoji" font-size="53px" fill="#000000" text-anchor="middle" style="white-space: pre;" direction="ltr" dominant-baseline="text-before-edge">Create</text></g><g mask="url(#mask-bhtIPc4lRxlOs_5bk1dye)" stroke-linecap="round"><g transform="translate(1418.9879754823287 2071.9646496984265) rotate(0 379.8219135930606 14.799990336579867)"><path d="M0 0 C126.61 4.93, 633.04 24.67, 759.64 29.6 M0 0 C126.61 4.93, 633.04 24.67, 759.64 29.6" stroke="#000000" stroke-width="4" fill="none"></path></g><g transform="translate(1418.9879754823287 2071.9646496984265) rotate(0 379.8219135930606 14.799990336579867)"><path d="M731.07 38.76 C741.29 35.48, 751.51 32.21, 759.64 29.6 M731.07 38.76 C740.55 35.72, 750.02 32.68, 759.64 29.6" stroke="#000000" stroke-width="4" fill="none"></path></g><g transform="translate(1418.9879754823287 2071.9646496984265) rotate(0 379.8219135930606 14.799990336579867)"><path d="M731.87 18.25 C741.8 22.31, 751.73 26.37, 759.64 29.6 M731.87 18.25 C741.08 22.01, 750.29 25.78, 759.64 29.6" stroke="#000000" stroke-width="4" fill="none"></path></g></g><mask id="mask-bhtIPc4lRxlOs_5bk1dye"><rect x="0" y="0" fill="#fff" width="2278.63180266845" height="2201.564630371586"></rect><rect x="1719.2710707160143" y="2056.2896400350064" fill="#000" width="159.07763671875" height="60.949999999999996" opacity="1"></rect></mask><g transform="translate(1719.2710707160143 2056.289640035006) rotate(0 79.538818359375 30.47499999999991)"><text x="79.538818359375" y="0" font-family="Helvetica, Segoe UI Emoji" font-size="53px" fill="#000000" text-anchor="middle" style="white-space: pre;" direction="ltr" dominant-baseline="text-before-edge">Create</text></g><g stroke-linecap="round"><g transform="translate(2722.5306004709437 1378.1896482717557) rotate(0 183.99881899587493 159.86468865168104)"><path d="M0 0 C61.33 53.29, 306.66 266.44, 368 319.73 M0 0 C61.33 53.29, 306.66 266.44, 368 319.73" stroke="#000000" stroke-width="4" fill="none"></path></g><g transform="translate(2722.5306004709437 1378.1896482717557) rotate(0 183.99881899587493 159.86468865168104)"><path d="M339.99 308.99 C346.03 311.3, 352.08 313.62, 368 319.73 M339.99 308.99 C346.67 311.55, 353.35 314.11, 368 319.73" stroke="#000000" stroke-width="4" fill="none"></path></g><g transform="translate(2722.5306004709437 1378.1896482717557) rotate(0 183.99881899587493 159.86468865168104)"><path d="M353.45 293.49 C356.59 299.16, 359.73 304.82, 368 319.73 M353.45 293.49 C356.92 299.75, 360.39 306.01, 368 319.73" stroke="#000000" stroke-width="4" fill="none"></path></g></g><mask></mask><g stroke-linecap="round"><g transform="translate(2727.659830306744 1950.0152873962247) rotate(0 183.2023037505703 -49.81019392400526)"><path d="M0 0 C61.07 -16.6, 305.34 -83.02, 366.4 -99.62 M0 0 C61.07 -16.6, 305.34 -83.02, 366.4 -99.62" stroke="#000000" stroke-width="4" fill="none"></path></g><g transform="translate(2727.659830306744 1950.0152873962247) rotate(0 183.2023037505703 -49.81019392400526)"><path d="M341.89 -82.32 C350.42 -88.34, 358.95 -94.36, 366.4 -99.62 M341.89 -82.32 C347.19 -86.06, 352.5 -89.81, 366.4 -99.62" stroke="#000000" stroke-width="4" fill="none"></path></g><g transform="translate(2727.659830306744 1950.0152873962247) rotate(0 183.2023037505703 -49.81019392400526)"><path d="M336.51 -102.13 C346.91 -101.25, 357.31 -100.38, 366.4 -99.62 M336.51 -102.13 C342.98 -101.58, 349.44 -101.04, 366.4 -99.62" stroke="#000000" stroke-width="4" fill="none"></path></g></g><mask></mask><g stroke-linecap="round"><g transform="translate(2736.562726346844 2539.1754986865794) rotate(0 168.7006203128348 3.6699968709353925)"><path d="M0 0 C56.23 1.22, 281.17 6.12, 337.4 7.34 M0 0 C56.23 1.22, 281.17 6.12, 337.4 7.34" stroke="#000000" stroke-width="4" fill="none"></path></g><g transform="translate(2736.562726346844 2539.1754986865794) rotate(0 168.7006203128348 3.6699968709353925)"><path d="M308.99 16.99 C315.18 14.88, 321.37 12.78, 337.4 7.34 M308.99 16.99 C316.22 14.53, 323.44 12.08, 337.4 7.34" stroke="#000000" stroke-width="4" fill="none"></path></g><g transform="translate(2736.562726346844 2539.1754986865794) rotate(0 168.7006203128348 3.6699968709353925)"><path d="M309.44 -3.53 C315.53 -1.16, 321.62 1.21, 337.4 7.34 M309.44 -3.53 C316.55 -0.77, 323.66 2, 337.4 7.34" stroke="#000000" stroke-width="4" fill="none"></path></g></g><mask></mask><g stroke-linecap="round" transform="translate(84.70331102741648 2501.0008506169384) rotate(0 252.5 185.91723053570058)"><path d="M32 0 C171 0, 310.01 0, 473 0 M32 0 C180.81 0, 329.62 0, 473 0 M473 0 C494.33 0, 505 10.67, 505 32 M473 0 C494.33 0, 505 10.67, 505 32 M505 32 C505 153.26, 505 274.52, 505 339.83 M505 32 C505 104.25, 505 176.51, 505 339.83 M505 339.83 C505 361.17, 494.33 371.83, 473 371.83 M505 339.83 C505 361.17, 494.33 371.83, 473 371.83 M473 371.83 C376.04 371.83, 279.08 371.83, 32 371.83 M473 371.83 C370.9 371.83, 268.81 371.83, 32 371.83 M32 371.83 C10.67 371.83, 0 361.17, 0 339.83 M32 371.83 C10.67 371.83, 0 361.17, 0 339.83 M0 339.83 C0 232.42, 0 125, 0 32 M0 339.83 C0 273.04, 0 206.25, 0 32 M0 32 C0 10.67, 10.67 0, 32 0 M0 32 C0 10.67, 10.67 0, 32 0" stroke="#000000" stroke-width="4" fill="none"></path></g><g transform="translate(95.26581102741648 2650.1180811526388) rotate(0 241.9375 36.799999999999955)"><text x="241.9375" y="0" font-family="Helvetica, Segoe UI Emoji" font-size="64px" fill="#000000" text-anchor="middle" style="white-space: pre;" direction="ltr" dominant-baseline="text-before-edge">Napier Subgraph</text></g><g stroke-linecap="round" transform="translate(875.2446781654007 411.94878872637173) rotate(0 263.37897640786423 107.95286440421103)"><path d="M32 0 C180.6 0, 329.19 0, 494.76 0 M32 0 C171.18 0, 310.36 0, 494.76 0 M494.76 0 C516.09 0, 526.76 10.67, 526.76 32 M494.76 0 C516.09 0, 526.76 10.67, 526.76 32 M526.76 32 C526.76 90.55, 526.76 149.1, 526.76 183.91 M526.76 32 C526.76 77.4, 526.76 122.79, 526.76 183.91 M526.76 183.91 C526.76 205.24, 516.09 215.91, 494.76 215.91 M526.76 183.91 C526.76 205.24, 516.09 215.91, 494.76 215.91 M494.76 215.91 C339.94 215.91, 185.12 215.91, 32 215.91 M494.76 215.91 C358.93 215.91, 223.1 215.91, 32 215.91 M32 215.91 C10.67 215.91, 0 205.24, 0 183.91 M32 215.91 C10.67 215.91, 0 205.24, 0 183.91 M0 183.91 C0 149.32, 0 114.73, 0 32 M0 183.91 C0 128.08, 0 72.25, 0 32 M0 32 C0 10.67, 10.67 0, 32 0 M0 32 C0 10.67, 10.67 0, 32 0" stroke="#000000" stroke-width="4" fill="none"></path></g><g transform="translate(1041.463040559593 492.97846887555716) rotate(0 97.16061401367188 26.923184255026058)"><text x="97.16061401367188" y="0" font-family="Helvetica, Segoe UI Emoji" font-size="46.82292913917585px" fill="#000000" text-anchor="middle" style="white-space: pre;" direction="ltr" dominant-baseline="text-before-edge">Yield Tier</text></g><g stroke-linecap="round" transform="translate(867.620179020538 139.66035323653523) rotate(0 267.2808871694622 117.70764130820601)"><path d="M32 0 C157.65 0, 283.3 0, 502.56 0 M32 0 C153.24 0, 274.48 0, 502.56 0 M502.56 0 C523.9 0, 534.56 10.67, 534.56 32 M502.56 0 C523.9 0, 534.56 10.67, 534.56 32 M534.56 32 C534.56 98.15, 534.56 164.3, 534.56 203.42 M534.56 32 C534.56 72.66, 534.56 113.32, 534.56 203.42 M534.56 203.42 C534.56 224.75, 523.9 235.42, 502.56 235.42 M534.56 203.42 C534.56 224.75, 523.9 235.42, 502.56 235.42 M502.56 235.42 C385.28 235.42, 267.99 235.42, 32 235.42 M502.56 235.42 C376.95 235.42, 251.33 235.42, 32 235.42 M32 235.42 C10.67 235.42, 0 224.75, 0 203.42 M32 235.42 C10.67 235.42, 0 224.75, 0 203.42 M0 203.42 C0 163.24, 0 123.06, 0 32 M0 203.42 C0 139.86, 0 76.31, 0 32 M0 32 C0 10.67, 10.67 0, 32 0 M0 32 C0 10.67, 10.67 0, 32 0" stroke="#000000" stroke-width="4" fill="none"></path></g><g transform="translate(882.0548442661718 230.44481028971495) rotate(0 252.84622192382812 26.923184255026058)"><text x="252.84622192382812" y="0" font-family="Helvetica, Segoe UI Emoji" font-size="46.82292913917585px" fill="#000000" text-anchor="middle" style="white-space: pre;" direction="ltr" dominant-baseline="text-before-edge">On-chain Tier Calculator</text></g><g stroke-linecap="round" transform="translate(847.9580035499771 117.58710736618036) rotate(0 286.9988562724934 265.7201053107584)"><path d="M32 0 C153.86 0, 275.73 0, 542 0 M542 0 C563.33 0, 574 10.67, 574 32 M574 32 C574 128.15, 574 224.31, 574 499.44 M574 499.44 C574 520.77, 563.33 531.44, 542 531.44 M542 531.44 C438.51 531.44, 335.02 531.44, 32 531.44 M32 531.44 C10.67 531.44, 0 520.77, 0 499.44 M0 499.44 C0 352.21, 0 204.98, 0 32 M0 32 C0 10.67, 10.67 0, 32 0" stroke="#e67700" stroke-width="4.5" fill="none" stroke-dasharray="8 12"></path></g><g stroke-linecap="round"><g transform="translate(2987.400035540137 961.4102968185503) rotate(0 0.6747348149560821 53.564441979419826)"><path d="M0 0 C0.22 17.85, 1.12 89.27, 1.35 107.13" stroke="#000000" stroke-width="4.5" fill="none" stroke-dasharray="8 12"></path></g></g><mask></mask><g stroke-linecap="round"><g transform="translate(3577.6145661158075 970.542020263933) rotate(0 0.6747348149560821 53.564441979419826)"><path d="M0 0 C0.22 17.85, 1.12 89.27, 1.35 107.13" stroke="#000000" stroke-width="4.5" fill="none" stroke-dasharray="8 12"></path></g></g><mask></mask><g stroke-linecap="round" transform="translate(2237.435491553256 1305.2177630990482) rotate(0 241.76982530379885 81.94212199893855)"><path d="M32 0 C195.48 0, 358.97 0, 451.54 0 M32 0 C164.06 0, 296.13 0, 451.54 0 M451.54 0 C472.87 0, 483.54 10.67, 483.54 32 M451.54 0 C472.87 0, 483.54 10.67, 483.54 32 M483.54 32 C483.54 57.59, 483.54 83.18, 483.54 131.88 M483.54 32 C483.54 61.47, 483.54 90.93, 483.54 131.88 M483.54 131.88 C483.54 153.22, 472.87 163.88, 451.54 163.88 M483.54 131.88 C483.54 153.22, 472.87 163.88, 451.54 163.88 M451.54 163.88 C284.42 163.88, 117.3 163.88, 32 163.88 M451.54 163.88 C359.77 163.88, 268 163.88, 32 163.88 M32 163.88 C10.67 163.88, 0 153.22, 0 131.88 M32 163.88 C10.67 163.88, 0 153.22, 0 131.88 M0 131.88 C0 92.09, 0 52.31, 0 32 M0 131.88 C0 94.24, 0 56.6, 0 32 M0 32 C0 10.67, 10.67 0, 32 0 M0 32 C0 10.67, 10.67 0, 32 0" stroke="#000000" stroke-width="4" fill="none"></path></g><g transform="translate(2271.2917426383046 1320.459885097987) rotate(0 207.91357421875 66.70000000000005)"><text x="207.91357421875" y="0" font-family="Helvetica, Segoe UI Emoji" font-size="58px" fill="#000000" text-anchor="middle" style="white-space: pre;" direction="ltr" dominant-baseline="text-before-edge">Tranche </text><text x="207.91357421875" y="66.69999999999999" font-family="Helvetica, Segoe UI Emoji" font-size="58px" fill="#000000" text-anchor="middle" style="white-space: pre;" direction="ltr" dominant-baseline="text-before-edge">(PrincipalToken)</text></g><g stroke-linecap="round" transform="translate(2244.695850533967 1513.9672179464455) rotate(0 241.2447820492086 80.33447923409881)"><path d="M32 0 C170.8 0, 309.59 0, 450.49 0 M32 0 C196.6 0, 361.19 0, 450.49 0 M450.49 0 C471.82 0, 482.49 10.67, 482.49 32 M450.49 0 C471.82 0, 482.49 10.67, 482.49 32 M482.49 32 C482.49 63.44, 482.49 94.87, 482.49 128.67 M482.49 32 C482.49 58.89, 482.49 85.77, 482.49 128.67 M482.49 128.67 C482.49 150, 471.82 160.67, 450.49 160.67 M482.49 128.67 C482.49 150, 471.82 160.67, 450.49 160.67 M450.49 160.67 C337.96 160.67, 225.43 160.67, 32 160.67 M450.49 160.67 C356.79 160.67, 263.08 160.67, 32 160.67 M32 160.67 C10.67 160.67, 0 150, 0 128.67 M32 160.67 C10.67 160.67, 0 150, 0 128.67 M0 128.67 C0 97.25, 0 65.82, 0 32 M0 128.67 C0 93.85, 0 59.03, 0 32 M0 32 C0 10.67, 10.67 0, 32 0 M0 32 C0 10.67, 10.67 0, 32 0" stroke="#000000" stroke-width="4" fill="none"></path></g><g transform="translate(2288.7604568019256 1560.9516971805442) rotate(0 197.18017578125 33.34999999999991)"><text x="197.18017578125" y="0" font-family="Helvetica, Segoe UI Emoji" font-size="58px" fill="#000000" text-anchor="middle" style="white-space: pre;" direction="ltr" dominant-baseline="text-before-edge">YieldToken(YT)</text></g><g stroke-linecap="round" transform="translate(2216.6570218438933 1268.3807867870341) rotate(0 270.95663499391753 228.23886968671286)"><path d="M32 0 C143.48 0, 254.97 0, 509.91 0 M509.91 0 C531.25 0, 541.91 10.67, 541.91 32 M541.91 32 C541.91 149.89, 541.91 267.79, 541.91 424.48 M541.91 424.48 C541.91 445.81, 531.25 456.48, 509.91 456.48 M509.91 456.48 C405.73 456.48, 301.54 456.48, 32 456.48 M32 456.48 C10.67 456.48, 0 445.81, 0 424.48 M0 424.48 C0 319.33, 0 214.18, 0 32 M0 32 C0 10.67, 10.67 0, 32 0" stroke="#000000" stroke-width="4.5" fill="none" stroke-dasharray="8 12"></path></g><g stroke-linecap="round" transform="translate(2234.545435579668 1884.8412633904063) rotate(0 241.76982530379885 81.94212199893855)"><path d="M32 0 C127.65 0, 223.31 0, 451.54 0 M32 0 C155.01 0, 278.02 0, 451.54 0 M451.54 0 C472.87 0, 483.54 10.67, 483.54 32 M451.54 0 C472.87 0, 483.54 10.67, 483.54 32 M483.54 32 C483.54 60.09, 483.54 88.18, 483.54 131.88 M483.54 32 C483.54 61.3, 483.54 90.6, 483.54 131.88 M483.54 131.88 C483.54 153.22, 472.87 163.88, 451.54 163.88 M483.54 131.88 C483.54 153.22, 472.87 163.88, 451.54 163.88 M451.54 163.88 C325.64 163.88, 199.74 163.88, 32 163.88 M451.54 163.88 C325.14 163.88, 198.74 163.88, 32 163.88 M32 163.88 C10.67 163.88, 0 153.22, 0 131.88 M32 163.88 C10.67 163.88, 0 153.22, 0 131.88 M0 131.88 C0 99.54, 0 67.2, 0 32 M0 131.88 C0 108.07, 0 84.26, 0 32 M0 32 C0 10.67, 10.67 0, 32 0 M0 32 C0 10.67, 10.67 0, 32 0" stroke="#000000" stroke-width="4" fill="none"></path></g><g transform="translate(2268.4016866647166 1900.083385389345) rotate(0 207.91357421875 66.70000000000005)"><text x="207.91357421875" y="0" font-family="Helvetica, Segoe UI Emoji" font-size="58px" fill="#000000" text-anchor="middle" style="white-space: pre;" direction="ltr" dominant-baseline="text-before-edge">Tranche </text><text x="207.91357421875" y="66.69999999999999" font-family="Helvetica, Segoe UI Emoji" font-size="58px" fill="#000000" text-anchor="middle" style="white-space: pre;" direction="ltr" dominant-baseline="text-before-edge">(PrincipalToken)</text></g><g stroke-linecap="round" transform="translate(2241.8057945603787 2093.5907182378037) rotate(0 241.2447820492086 80.33447923409881)"><path d="M32 0 C124.21 0, 216.43 0, 450.49 0 M32 0 C142.85 0, 253.69 0, 450.49 0 M450.49 0 C471.82 0, 482.49 10.67, 482.49 32 M450.49 0 C471.82 0, 482.49 10.67, 482.49 32 M482.49 32 C482.49 59.81, 482.49 87.62, 482.49 128.67 M482.49 32 C482.49 59.84, 482.49 87.67, 482.49 128.67 M482.49 128.67 C482.49 150, 471.82 160.67, 450.49 160.67 M482.49 128.67 C482.49 150, 471.82 160.67, 450.49 160.67 M450.49 160.67 C337.3 160.67, 224.11 160.67, 32 160.67 M450.49 160.67 C308.86 160.67, 167.22 160.67, 32 160.67 M32 160.67 C10.67 160.67, 0 150, 0 128.67 M32 160.67 C10.67 160.67, 0 150, 0 128.67 M0 128.67 C0 93.51, 0 58.36, 0 32 M0 128.67 C0 105.33, 0 82, 0 32 M0 32 C0 10.67, 10.67 0, 32 0 M0 32 C0 10.67, 10.67 0, 32 0" stroke="#000000" stroke-width="4" fill="none"></path></g><g transform="translate(2285.8704008283376 2140.5751974719024) rotate(0 197.18017578125 33.34999999999991)"><text x="197.18017578125" y="0" font-family="Helvetica, Segoe UI Emoji" font-size="58px" fill="#000000" text-anchor="middle" style="white-space: pre;" direction="ltr" dominant-baseline="text-before-edge">YieldToken(YT)</text></g><g stroke-linecap="round" transform="translate(2210.63180266845 1845.3264501516533) rotate(0 270.95663499391753 228.23886968671286)"><path d="M32 0 C143.65 0, 255.31 0, 509.91 0 M509.91 0 C531.25 0, 541.91 10.67, 541.91 32 M541.91 32 C541.91 169.8, 541.91 307.59, 541.91 424.48 M541.91 424.48 C541.91 445.81, 531.25 456.48, 509.91 456.48 M509.91 456.48 C341.93 456.48, 173.94 456.48, 32 456.48 M32 456.48 C10.67 456.48, 0 445.81, 0 424.48 M0 424.48 C0 338.85, 0 253.22, 0 32 M0 32 C0 10.67, 10.67 0, 32 0" stroke="#000000" stroke-width="4.5" fill="none" stroke-dasharray="8 12"></path></g><g stroke-linecap="round" transform="translate(2222.3291981882257 2507.143342624062) rotate(0 241.76982530379885 81.94212199893855)"><path d="M32 0 C129.06 0, 226.13 0, 451.54 0 M32 0 C189.7 0, 347.4 0, 451.54 0 M451.54 0 C472.87 0, 483.54 10.67, 483.54 32 M451.54 0 C472.87 0, 483.54 10.67, 483.54 32 M483.54 32 C483.54 70.53, 483.54 109.05, 483.54 131.88 M483.54 32 C483.54 70.23, 483.54 108.46, 483.54 131.88 M483.54 131.88 C483.54 153.22, 472.87 163.88, 451.54 163.88 M483.54 131.88 C483.54 153.22, 472.87 163.88, 451.54 163.88 M451.54 163.88 C327.07 163.88, 202.6 163.88, 32 163.88 M451.54 163.88 C339.27 163.88, 226.99 163.88, 32 163.88 M32 163.88 C10.67 163.88, 0 153.22, 0 131.88 M32 163.88 C10.67 163.88, 0 153.22, 0 131.88 M0 131.88 C0 99.98, 0 68.08, 0 32 M0 131.88 C0 99.04, 0 66.2, 0 32 M0 32 C0 10.67, 10.67 0, 32 0 M0 32 C0 10.67, 10.67 0, 32 0" stroke="#000000" stroke-width="4" fill="none"></path></g><g transform="translate(2256.1854492732746 2522.3854646230006) rotate(0 207.91357421875 66.70000000000005)"><text x="207.91357421875" y="0" font-family="Helvetica, Segoe UI Emoji" font-size="58px" fill="#000000" text-anchor="middle" style="white-space: pre;" direction="ltr" dominant-baseline="text-before-edge">Tranche </text><text x="207.91357421875" y="66.69999999999999" font-family="Helvetica, Segoe UI Emoji" font-size="58px" fill="#000000" text-anchor="middle" style="white-space: pre;" direction="ltr" dominant-baseline="text-before-edge">(PrincipalToken)</text></g><g stroke-linecap="round" transform="translate(2229.589557168937 2715.892797471459) rotate(0 241.2447820492086 80.33447923409881)"><path d="M32 0 C117.03 0, 202.06 0, 450.49 0 M32 0 C175.85 0, 319.69 0, 450.49 0 M450.49 0 C471.82 0, 482.49 10.67, 482.49 32 M450.49 0 C471.82 0, 482.49 10.67, 482.49 32 M482.49 32 C482.49 52.34, 482.49 72.69, 482.49 128.67 M482.49 32 C482.49 68.59, 482.49 105.19, 482.49 128.67 M482.49 128.67 C482.49 150, 471.82 160.67, 450.49 160.67 M482.49 128.67 C482.49 150, 471.82 160.67, 450.49 160.67 M450.49 160.67 C337.39 160.67, 224.28 160.67, 32 160.67 M450.49 160.67 C338.25 160.67, 226.01 160.67, 32 160.67 M32 160.67 C10.67 160.67, 0 150, 0 128.67 M32 160.67 C10.67 160.67, 0 150, 0 128.67 M0 128.67 C0 93.84, 0 59.02, 0 32 M0 128.67 C0 92.02, 0 55.37, 0 32 M0 32 C0 10.67, 10.67 0, 32 0 M0 32 C0 10.67, 10.67 0, 32 0" stroke="#000000" stroke-width="4" fill="none"></path></g><g transform="translate(2273.6541634368955 2762.8772767055575) rotate(0 197.18017578125 33.34999999999991)"><text x="197.18017578125" y="0" font-family="Helvetica, Segoe UI Emoji" font-size="58px" fill="#000000" text-anchor="middle" style="white-space: pre;" direction="ltr" dominant-baseline="text-before-edge">YieldToken(YT)</text></g><g stroke-linecap="round" transform="translate(2197.7417985859174 2451.7594659432602) rotate(0 270.95663499391753 228.23886968671286)"><path d="M32 0 C200.23 0, 368.47 0, 509.91 0 M509.91 0 C531.25 0, 541.91 10.67, 541.91 32 M541.91 32 C541.91 181.36, 541.91 330.71, 541.91 424.48 M541.91 424.48 C541.91 445.81, 531.25 456.48, 509.91 456.48 M509.91 456.48 C395.36 456.48, 280.8 456.48, 32 456.48 M32 456.48 C10.67 456.48, 0 445.81, 0 424.48 M0 424.48 C0 271.51, 0 118.54, 0 32 M0 32 C0 10.67, 10.67 0, 32 0" stroke="#000000" stroke-width="4.5" fill="none" stroke-dasharray="8 12"></path></g><g stroke-linecap="round"><g transform="translate(3499.0737888953076 1839.7905821341424) rotate(0 201.20552573653345 -5.909390798621644)"><path d="M0 0 C67.07 -1.97, 335.34 -9.85, 402.41 -11.82 M0 0 C67.07 -1.97, 335.34 -9.85, 402.41 -11.82" stroke="#000000" stroke-width="4" fill="none"></path></g><g transform="translate(3499.0737888953076 1839.7905821341424) rotate(0 201.20552573653345 -5.909390798621644)"><path d="M374.53 -0.73 C383.3 -4.22, 392.08 -7.71, 402.41 -11.82 M374.53 -0.73 C382.89 -4.06, 391.24 -7.38, 402.41 -11.82" stroke="#000000" stroke-width="4" fill="none"></path></g><g transform="translate(3499.0737888953076 1839.7905821341424) rotate(0 201.20552573653345 -5.909390798621644)"><path d="M373.93 -21.25 C382.89 -18.28, 391.85 -15.31, 402.41 -11.82 M373.93 -21.25 C382.46 -18.42, 391 -15.6, 402.41 -11.82" stroke="#000000" stroke-width="4" fill="none"></path></g></g><mask></mask><g stroke-linecap="round"><g transform="translate(3484.785168077987 2579.8348493782137) rotate(0 218.42883620933935 2.860331533904855)"><path d="M0 0 C72.81 0.95, 364.05 4.77, 436.86 5.72 M0 0 C72.81 0.95, 364.05 4.77, 436.86 5.72" stroke="#000000" stroke-width="4" fill="none"></path></g><g transform="translate(3484.785168077987 2579.8348493782137) rotate(0 218.42883620933935 2.860331533904855)"><path d="M408.53 15.61 C418.28 12.21, 428.03 8.8, 436.86 5.72 M408.53 15.61 C419.08 11.93, 429.62 8.25, 436.86 5.72" stroke="#000000" stroke-width="4" fill="none"></path></g><g transform="translate(3484.785168077987 2579.8348493782137) rotate(0 218.42883620933935 2.860331533904855)"><path d="M408.8 -4.91 C418.46 -1.25, 428.11 2.41, 436.86 5.72 M408.8 -4.91 C419.25 -0.95, 429.69 3, 436.86 5.72" stroke="#000000" stroke-width="4" fill="none"></path></g></g><mask></mask><g transform="translate(2067.454799369956 2339.502433078905) rotate(0 439.111328125 28.75)"><text x="0" y="0" font-family="Helvetica, Segoe UI Emoji" font-size="50px" fill="#000000" text-anchor="start" style="white-space: pre;" direction="ltr" dominant-baseline="text-before-edge">PT and YT-Lido StETH November 2023</text></g><g transform="translate(2142.3984686820336 1739.861754771428) rotate(0 379.345703125 28.75)"><text x="0" y="0" font-family="Helvetica, Segoe UI Emoji" font-size="50px" fill="#000000" text-anchor="start" style="white-space: pre;" direction="ltr" dominant-baseline="text-before-edge">PT and YT- Lido StETH May-2023</text></g><g transform="translate(2018.9790745321616 2938.490958938313) rotate(0 491.90673828125 28.75)"><text x="0" y="0" font-family="Helvetica, Segoe UI Emoji" font-size="50px" fill="#000000" text-anchor="start" style="white-space: pre;" direction="ltr" dominant-baseline="text-before-edge">PT and YT-Compound-ETH November 2023</text></g><g transform="translate(2906.0643484093916 1155.396194729869) rotate(0 133.2998046875 25.299999999999955)"><text x="133.2998046875" y="0" font-family="Helvetica, Segoe UI Emoji" font-size="44px" fill="#364fc7" text-anchor="middle" style="white-space: pre;" direction="ltr" dominant-baseline="text-before-edge">Napier Space</text></g><g transform="translate(3790.1230140496855 1101.2707507607747) rotate(0 91.7060546875 25.299999999999955)"><text x="91.7060546875" y="0" font-family="Helvetica, Segoe UI Emoji" font-size="44px" fill="#e03131" text-anchor="middle" style="white-space: pre;" direction="ltr" dominant-baseline="text-before-edge">Curve V2</text></g><g stroke-linecap="round" transform="translate(181.95496190586528 985.4724754801427) rotate(0 131.79529188894844 137)"><path d="M263.59 137 C263.59 140.77, 263.44 144.56, 263.14 148.31 C262.84 152.07, 262.39 155.83, 261.79 159.55 C261.2 163.27, 260.45 166.98, 259.56 170.63 C258.67 174.29, 257.63 177.92, 256.45 181.48 C255.27 185.05, 253.95 188.58, 252.49 192.03 C251.03 195.49, 249.43 198.89, 247.71 202.2 C245.98 205.52, 244.11 208.77, 242.13 211.93 C240.15 215.09, 238.03 218.17, 235.8 221.15 C233.57 224.12, 231.22 227.01, 228.76 229.79 C226.3 232.56, 223.73 235.24, 221.06 237.79 C218.39 240.35, 215.61 242.8, 212.75 245.11 C209.88 247.43, 206.92 249.63, 203.88 251.69 C200.84 253.75, 197.71 255.69, 194.52 257.49 C191.33 259.28, 188.06 260.95, 184.74 262.46 C181.41 263.98, 178.02 265.35, 174.59 266.58 C171.16 267.8, 167.67 268.88, 164.15 269.81 C160.63 270.73, 157.07 271.51, 153.49 272.13 C149.91 272.75, 146.29 273.22, 142.68 273.53 C139.06 273.84, 135.42 274, 131.8 274 C128.17 274, 124.53 273.84, 120.91 273.53 C117.3 273.22, 113.68 272.75, 110.1 272.13 C106.52 271.51, 102.96 270.73, 99.44 269.81 C95.92 268.88, 92.43 267.8, 89 266.58 C85.57 265.35, 82.18 263.98, 78.85 262.46 C75.53 260.95, 72.26 259.28, 69.07 257.49 C65.88 255.69, 62.75 253.75, 59.71 251.69 C56.67 249.63, 53.71 247.43, 50.84 245.11 C47.98 242.8, 45.2 240.35, 42.53 237.79 C39.86 235.24, 37.29 232.56, 34.83 229.79 C32.37 227.01, 30.02 224.12, 27.79 221.15 C25.56 218.17, 23.44 215.09, 21.46 211.93 C19.48 208.77, 17.61 205.52, 15.88 202.2 C14.16 198.89, 12.56 195.49, 11.1 192.03 C9.64 188.58, 8.32 185.05, 7.14 181.48 C5.96 177.92, 4.92 174.29, 4.03 170.63 C3.14 166.98, 2.39 163.27, 1.8 159.55 C1.2 155.83, 0.75 152.07, 0.45 148.31 C0.15 144.56, 0 140.77, 0 137 C0 133.23, 0.15 129.44, 0.45 125.69 C0.75 121.93, 1.2 118.17, 1.8 114.45 C2.39 110.73, 3.14 107.02, 4.03 103.37 C4.92 99.71, 5.96 96.08, 7.14 92.52 C8.32 88.95, 9.64 85.42, 11.1 81.97 C12.56 78.51, 14.16 75.11, 15.88 71.8 C17.61 68.48, 19.48 65.23, 21.46 62.07 C23.44 58.91, 25.56 55.83, 27.79 52.85 C30.02 49.88, 32.37 46.99, 34.83 44.21 C37.29 41.44, 39.86 38.76, 42.53 36.21 C45.2 33.65, 47.98 31.2, 50.84 28.89 C53.71 26.57, 56.67 24.37, 59.71 22.31 C62.75 20.25, 65.88 18.31, 69.07 16.51 C72.26 14.72, 75.53 13.05, 78.85 11.54 C82.18 10.02, 85.57 8.65, 89 7.42 C92.43 6.2, 95.92 5.12, 99.44 4.19 C102.96 3.27, 106.52 2.49, 110.1 1.87 C113.68 1.25, 117.3 0.78, 120.91 0.47 C124.53 0.16, 128.17 0, 131.8 0 C135.42 0, 139.06 0.16, 142.68 0.47 C146.29 0.78, 149.91 1.25, 153.49 1.87 C157.07 2.49, 160.63 3.27, 164.15 4.19 C167.67 5.12, 171.16 6.2, 174.59 7.42 C178.02 8.65, 181.41 10.02, 184.74 11.54 C188.06 13.05, 191.33 14.72, 194.52 16.51 C197.71 18.31, 200.84 20.25, 203.88 22.31 C206.92 24.37, 209.88 26.57, 212.75 28.89 C215.61 31.2, 218.39 33.65, 221.06 36.21 C223.73 38.76, 226.3 41.44, 228.76 44.21 C231.22 46.99, 233.57 49.88, 235.8 52.85 C238.03 55.83, 240.15 58.91, 242.13 62.07 C244.11 65.23, 245.98 68.48, 247.71 71.8 C249.43 75.11, 251.03 78.51, 252.49 81.97 C253.95 85.42, 255.27 88.95, 256.45 92.52 C257.63 96.08, 258.67 99.71, 259.56 103.37 C260.45 107.02, 261.2 110.73, 261.79 114.45 C262.39 118.17, 262.84 121.93, 263.14 125.69 C263.44 129.44, 263.59 133.23, 263.59 137" stroke="#000000" stroke-width="4" fill="none"></path></g><g transform="translate(227.35085448417794 1084.648846457586) rotate(0 86.2060546875 37.950000000000045)"><text x="86.2060546875" y="0" font-family="Helvetica, Segoe UI Emoji" font-size="66px" fill="#000000" text-anchor="middle" style="white-space: pre;" direction="ltr" dominant-baseline="text-before-edge">LPers</text></g><g stroke-linecap="round" transform="translate(314.60995607919176 1230.5067161182483) rotate(0 148.44252948194412 143.8293400163459)"><path d="M296.89 143.83 C296.89 147.59, 296.73 151.36, 296.43 155.11 C296.12 158.86, 295.66 162.61, 295.06 166.33 C294.45 170.04, 293.69 173.75, 292.78 177.41 C291.88 181.06, 290.82 184.7, 289.62 188.28 C288.42 191.85, 287.07 195.4, 285.59 198.87 C284.1 202.35, 282.47 205.77, 280.71 209.13 C278.94 212.48, 277.04 215.77, 275.01 218.98 C272.98 222.19, 270.82 225.33, 268.54 228.37 C266.25 231.41, 263.84 234.38, 261.32 237.24 C258.8 240.1, 256.15 242.87, 253.41 245.53 C250.66 248.19, 247.8 250.76, 244.85 253.2 C241.9 255.64, 238.84 257.98, 235.69 260.19 C232.55 262.4, 229.31 264.5, 226 266.46 C222.69 268.43, 219.29 270.27, 215.83 271.98 C212.37 273.69, 208.84 275.27, 205.25 276.71 C201.66 278.15, 198.01 279.46, 194.31 280.62 C190.62 281.78, 186.87 282.81, 183.1 283.68 C179.32 284.56, 175.5 285.3, 171.66 285.89 C167.83 286.48, 163.96 286.92, 160.09 287.22 C156.22 287.51, 152.32 287.66, 148.44 287.66 C144.56 287.66, 140.67 287.51, 136.8 287.22 C132.93 286.92, 129.06 286.48, 125.22 285.89 C121.39 285.3, 117.56 284.56, 113.79 283.68 C110.01 282.81, 106.26 281.78, 102.57 280.62 C98.88 279.46, 95.22 278.15, 91.64 276.71 C88.05 275.27, 84.51 273.69, 81.05 271.98 C77.59 270.27, 74.19 268.43, 70.88 266.46 C67.57 264.5, 64.33 262.4, 61.19 260.19 C58.05 257.98, 54.99 255.64, 52.04 253.2 C49.08 250.76, 46.22 248.19, 43.48 245.53 C40.73 242.87, 38.09 240.1, 35.57 237.24 C33.04 234.38, 30.63 231.41, 28.35 228.37 C26.07 225.33, 23.9 222.19, 21.87 218.98 C19.85 215.77, 17.94 212.48, 16.18 209.13 C14.42 205.77, 12.79 202.35, 11.3 198.87 C9.81 195.4, 8.46 191.85, 7.27 188.28 C6.07 184.7, 5.01 181.06, 4.1 177.41 C3.2 173.75, 2.43 170.04, 1.83 166.33 C1.22 162.61, 0.76 158.86, 0.46 155.11 C0.15 151.36, 0 147.59, 0 143.83 C0 140.07, 0.15 136.29, 0.46 132.54 C0.76 128.79, 1.22 125.04, 1.83 121.33 C2.43 117.61, 3.2 113.91, 4.1 110.25 C5.01 106.6, 6.07 102.96, 7.27 99.38 C8.46 95.81, 9.81 92.26, 11.3 88.79 C12.79 85.31, 14.42 81.88, 16.18 78.53 C17.94 75.18, 19.85 71.89, 21.87 68.68 C23.9 65.47, 26.07 62.33, 28.35 59.29 C30.63 56.25, 33.04 53.28, 35.57 50.42 C38.09 47.56, 40.73 44.79, 43.48 42.13 C46.22 39.47, 49.08 36.9, 52.04 34.46 C54.99 32.02, 58.05 29.68, 61.19 27.47 C64.33 25.26, 67.57 23.16, 70.88 21.19 C74.19 19.23, 77.59 17.38, 81.05 15.68 C84.51 13.97, 88.05 12.39, 91.64 10.95 C95.22 9.51, 98.88 8.2, 102.57 7.04 C106.26 5.88, 110.01 4.85, 113.79 3.97 C117.56 3.1, 121.39 2.36, 125.22 1.77 C129.06 1.18, 132.93 0.74, 136.8 0.44 C140.67 0.15, 144.56 0, 148.44 0 C152.32 0, 156.22 0.15, 160.09 0.44 C163.96 0.74, 167.83 1.18, 171.66 1.77 C175.5 2.36, 179.32 3.1, 183.1 3.97 C186.87 4.85, 190.62 5.88, 194.31 7.04 C198.01 8.2, 201.66 9.51, 205.25 10.95 C208.84 12.39, 212.37 13.97, 215.83 15.68 C219.29 17.38, 222.69 19.23, 226 21.19 C229.31 23.16, 232.55 25.26, 235.69 27.47 C238.84 29.68, 241.9 32.02, 244.85 34.46 C247.8 36.9, 250.66 39.47, 253.41 42.13 C256.15 44.79, 258.8 47.56, 261.32 50.42 C263.84 53.28, 266.25 56.25, 268.54 59.29 C270.82 62.33, 272.98 65.47, 275.01 68.68 C277.04 71.89, 278.94 75.18, 280.71 78.53 C282.47 81.88, 284.1 85.31, 285.59 88.79 C287.07 92.26, 288.42 95.81, 289.62 99.38 C290.82 102.96, 291.88 106.6, 292.78 110.25 C293.69 113.91, 294.45 117.61, 295.06 121.33 C295.66 125.04, 296.12 128.79, 296.43 132.54 C296.73 136.29, 296.89 140.07, 296.89 143.83" stroke="#000000" stroke-width="4" fill="none"></path></g><g transform="translate(392.6407601223832 1296.0299681356291) rotate(0 70.44700622558594 78.1033863398211)"><text x="70.44700622558594" y="0" font-family="Helvetica, Segoe UI Emoji" font-size="45.27732541438904px" fill="#000000" text-anchor="middle" style="white-space: pre;" direction="ltr" dominant-baseline="text-before-edge">Fixed </text><text x="70.44700622558594" y="52.068924226547395" font-family="Helvetica, Segoe UI Emoji" font-size="45.27732541438904px" fill="#000000" text-anchor="middle" style="white-space: pre;" direction="ltr" dominant-baseline="text-before-edge">Rate </text><text x="70.44700622558594" y="104.13784845309479" font-family="Helvetica, Segoe UI Emoji" font-size="45.27732541438904px" fill="#000000" text-anchor="middle" style="white-space: pre;" direction="ltr" dominant-baseline="text-before-edge">Buyers</text></g><g stroke-linecap="round" transform="translate(10.000000000000455 1224.7670761946265) rotate(0 145.81802554433784 151.65785996623185)"><path d="M291.64 151.66 C291.64 155.62, 291.49 159.6, 291.19 163.56 C290.89 167.51, 290.44 171.46, 289.84 175.38 C289.24 179.3, 288.5 183.2, 287.61 187.06 C286.72 190.92, 285.68 194.75, 284.5 198.52 C283.32 202.29, 282 206.03, 280.54 209.69 C279.08 213.36, 277.47 216.98, 275.74 220.51 C274.01 224.04, 272.14 227.52, 270.15 230.9 C268.16 234.28, 266.03 237.59, 263.79 240.8 C261.55 244.01, 259.18 247.14, 256.7 250.15 C254.22 253.17, 251.62 256.09, 248.93 258.9 C246.23 261.7, 243.42 264.4, 240.52 266.98 C237.62 269.56, 234.61 272.02, 231.53 274.35 C228.44 276.68, 225.26 278.9, 222.01 280.97 C218.76 283.04, 215.42 284.99, 212.02 286.79 C208.62 288.59, 205.14 290.25, 201.62 291.77 C198.1 293.29, 194.51 294.67, 190.88 295.89 C187.25 297.12, 183.57 298.2, 179.86 299.13 C176.15 300.05, 172.4 300.83, 168.63 301.45 C164.86 302.07, 161.06 302.54, 157.26 302.85 C153.46 303.16, 149.63 303.32, 145.82 303.32 C142 303.32, 138.18 303.16, 134.38 302.85 C130.58 302.54, 126.77 302.07, 123.01 301.45 C119.24 300.83, 115.49 300.05, 111.78 299.13 C108.07 298.2, 104.38 297.12, 100.76 295.89 C97.13 294.67, 93.54 293.29, 90.02 291.77 C86.49 290.25, 83.02 288.59, 79.62 286.79 C76.22 284.99, 72.88 283.04, 69.63 280.97 C66.38 278.9, 63.19 276.68, 60.11 274.35 C57.02 272.02, 54.02 269.56, 51.12 266.98 C48.22 264.4, 45.41 261.7, 42.71 258.9 C40.01 256.09, 37.41 253.17, 34.94 250.15 C32.46 247.14, 30.09 244.01, 27.85 240.8 C25.61 237.59, 23.48 234.28, 21.49 230.9 C19.5 227.52, 17.62 224.04, 15.89 220.51 C14.16 216.98, 12.56 213.36, 11.1 209.69 C9.64 206.03, 8.32 202.29, 7.14 198.52 C5.96 194.75, 4.92 190.92, 4.03 187.06 C3.14 183.2, 2.39 179.3, 1.8 175.38 C1.2 171.46, 0.75 167.51, 0.45 163.56 C0.15 159.6, 0 155.62, 0 151.66 C0 147.69, 0.15 143.71, 0.45 139.76 C0.75 135.8, 1.2 131.85, 1.8 127.93 C2.39 124.02, 3.14 120.11, 4.03 116.25 C4.92 112.4, 5.96 108.57, 7.14 104.79 C8.32 101.02, 9.64 97.29, 11.1 93.62 C12.56 89.96, 14.16 86.34, 15.89 82.81 C17.62 79.27, 19.5 75.8, 21.49 72.42 C23.48 69.04, 25.61 65.72, 27.85 62.52 C30.09 59.31, 32.46 56.18, 34.94 53.16 C37.41 50.15, 40.01 47.22, 42.71 44.42 C45.41 41.61, 48.22 38.91, 51.12 36.34 C54.02 33.76, 57.02 31.3, 60.11 28.96 C63.19 26.63, 66.38 24.42, 69.63 22.35 C72.88 20.28, 76.22 18.33, 79.62 16.53 C83.02 14.73, 86.49 13.06, 90.02 11.54 C93.54 10.03, 97.13 8.65, 100.76 7.42 C104.38 6.2, 108.07 5.12, 111.78 4.19 C115.49 3.26, 119.24 2.49, 123.01 1.87 C126.77 1.25, 130.58 0.78, 134.38 0.47 C138.18 0.16, 142 0, 145.82 0 C149.63 0, 153.46 0.16, 157.26 0.47 C161.06 0.78, 164.86 1.25, 168.63 1.87 C172.4 2.49, 176.15 3.26, 179.86 4.19 C183.57 5.12, 187.25 6.2, 190.88 7.42 C194.51 8.65, 198.1 10.03, 201.62 11.54 C205.14 13.06, 208.62 14.73, 212.02 16.53 C215.42 18.33, 218.76 20.28, 222.01 22.35 C225.26 24.42, 228.44 26.63, 231.53 28.96 C234.61 31.3, 237.62 33.76, 240.52 36.34 C243.42 38.91, 246.23 41.61, 248.93 44.42 C251.62 47.22, 254.22 50.15, 256.7 53.16 C259.18 56.18, 261.55 59.31, 263.79 62.52 C266.03 65.72, 268.16 69.04, 270.15 72.42 C272.14 75.8, 274.01 79.27, 275.74 82.81 C277.47 86.34, 279.08 89.96, 280.54 93.62 C282 97.29, 283.32 101.02, 284.5 104.79 C285.68 108.57, 286.72 112.4, 287.61 116.25 C288.5 120.11, 289.24 124.02, 289.84 127.93 C290.44 131.85, 290.89 135.8, 291.19 139.76 C291.49 143.71, 291.64 147.69, 291.64 151.66" stroke="#000000" stroke-width="4" fill="none"></path></g><g transform="translate(59.49206984707871 1306.7327035137837) rotate(0 96.217041015625 69.45393144471245)"><text x="96.217041015625" y="0" font-family="Helvetica, Segoe UI Emoji" font-size="40.26314866360138px" fill="#000000" text-anchor="middle" style="white-space: pre;" direction="ltr" dominant-baseline="text-before-edge">Variable </text><text x="96.217041015625" y="46.30262096314158" font-family="Helvetica, Segoe UI Emoji" font-size="40.26314866360138px" fill="#000000" text-anchor="middle" style="white-space: pre;" direction="ltr" dominant-baseline="text-before-edge">Rate </text><text x="96.217041015625" y="92.60524192628316" font-family="Helvetica, Segoe UI Emoji" font-size="40.26314866360138px" fill="#000000" text-anchor="middle" style="white-space: pre;" direction="ltr" dominant-baseline="text-before-edge">Depositors</text></g><g transform="translate(204.26620640039982 1530.3239003550489) rotate(0 83.5625 36.799999999999955)"><text x="83.5625" y="0" font-family="Helvetica, Segoe UI Emoji" font-size="64px" fill="#000000" text-anchor="middle" style="white-space: pre;" direction="ltr" dominant-baseline="text-before-edge">Users</text></g><g stroke-linecap="round" transform="translate(108.23680793185031 1742.4256358885077) rotate(0 195.11932085889543 178.68806722787554)"><path d="M390.24 178.69 C390.24 182.94, 390.07 187.2, 389.74 191.44 C389.41 195.67, 388.91 199.91, 388.25 204.12 C387.59 208.32, 386.77 212.52, 385.78 216.67 C384.79 220.82, 383.64 224.95, 382.33 229.03 C381.03 233.11, 379.56 237.15, 377.94 241.13 C376.31 245.11, 374.53 249.05, 372.61 252.92 C370.68 256.78, 368.6 260.59, 366.37 264.32 C364.15 268.05, 361.77 271.72, 359.26 275.29 C356.76 278.87, 354.1 282.37, 351.32 285.77 C348.54 289.17, 345.62 292.49, 342.58 295.7 C339.54 298.92, 336.37 302.04, 333.09 305.04 C329.81 308.04, 326.4 310.95, 322.9 313.73 C319.39 316.51, 315.76 319.19, 312.05 321.74 C308.34 324.28, 304.51 326.71, 300.61 329.01 C296.71 331.31, 292.7 333.48, 288.63 335.52 C284.56 337.56, 280.4 339.46, 276.17 341.23 C271.95 342.99, 267.65 344.62, 263.31 346.11 C258.96 347.59, 254.54 348.94, 250.09 350.14 C245.64 351.34, 241.13 352.39, 236.59 353.29 C232.06 354.2, 227.48 354.95, 222.89 355.56 C218.3 356.16, 213.67 356.62, 209.04 356.92 C204.41 357.22, 199.76 357.38, 195.12 357.38 C190.48 357.38, 185.83 357.22, 181.2 356.92 C176.57 356.62, 171.94 356.16, 167.35 355.56 C162.76 354.95, 158.18 354.2, 153.64 353.29 C149.11 352.39, 144.6 351.34, 140.15 350.14 C135.7 348.94, 131.28 347.59, 126.93 346.11 C122.58 344.62, 118.28 342.99, 114.06 341.23 C109.84 339.46, 105.68 337.56, 101.61 335.52 C97.54 333.48, 93.53 331.31, 89.63 329.01 C85.73 326.71, 81.9 324.28, 78.19 321.74 C74.47 319.19, 70.85 316.51, 67.34 313.73 C63.84 310.95, 60.43 308.04, 57.15 305.04 C53.87 302.04, 50.7 298.92, 47.66 295.7 C44.62 292.49, 41.7 289.17, 38.92 285.77 C36.14 282.37, 33.48 278.87, 30.97 275.29 C28.47 271.72, 26.09 268.05, 23.87 264.32 C21.64 260.59, 19.56 256.78, 17.63 252.92 C15.71 249.05, 13.92 245.11, 12.3 241.13 C10.68 237.15, 9.21 233.11, 7.9 229.03 C6.6 224.95, 5.45 220.82, 4.46 216.67 C3.47 212.52, 2.65 208.32, 1.99 204.12 C1.33 199.91, 0.83 195.67, 0.5 191.44 C0.17 187.2, 0 182.94, 0 178.69 C0 174.44, 0.17 170.18, 0.5 165.94 C0.83 161.7, 1.33 157.46, 1.99 153.26 C2.65 149.05, 3.47 144.86, 4.46 140.71 C5.45 136.55, 6.6 132.42, 7.9 128.35 C9.21 124.27, 10.68 120.22, 12.3 116.24 C13.92 112.26, 15.71 108.32, 17.63 104.46 C19.56 100.59, 21.64 96.78, 23.87 93.05 C26.09 89.32, 28.47 85.66, 30.97 82.08 C33.48 78.51, 36.14 75.01, 38.92 71.6 C41.7 68.2, 44.62 64.88, 47.66 61.67 C50.7 58.46, 53.87 55.34, 57.15 52.34 C60.43 49.33, 63.84 46.43, 67.34 43.64 C70.85 40.86, 74.47 38.19, 78.19 35.64 C81.9 33.09, 85.73 30.66, 89.63 28.37 C93.53 26.07, 97.54 23.89, 101.61 21.86 C105.68 19.82, 109.84 17.91, 114.06 16.15 C118.28 14.38, 122.58 12.75, 126.93 11.27 C131.28 9.78, 135.7 8.44, 140.15 7.24 C144.6 6.04, 149.11 4.99, 153.64 4.08 C158.18 3.18, 162.76 2.42, 167.35 1.82 C171.94 1.21, 176.57 0.76, 181.2 0.46 C185.83 0.15, 190.48 0, 195.12 0 C199.76 0, 204.41 0.15, 209.04 0.46 C213.67 0.76, 218.3 1.21, 222.89 1.82 C227.48 2.42, 232.06 3.18, 236.59 4.08 C241.13 4.99, 245.64 6.04, 250.09 7.24 C254.54 8.44, 258.96 9.78, 263.31 11.27 C267.65 12.75, 271.95 14.38, 276.17 16.15 C280.4 17.91, 284.56 19.82, 288.63 21.86 C292.7 23.89, 296.71 26.07, 300.61 28.37 C304.51 30.66, 308.34 33.09, 312.05 35.64 C315.76 38.19, 319.39 40.86, 322.9 43.64 C326.4 46.43, 329.81 49.33, 333.09 52.34 C336.37 55.34, 339.54 58.46, 342.58 61.67 C345.62 64.88, 348.54 68.2, 351.32 71.6 C354.1 75.01, 356.76 78.51, 359.26 82.08 C361.77 85.66, 364.15 89.32, 366.37 93.05 C368.6 96.78, 370.68 100.59, 372.61 104.46 C374.53 108.32, 376.31 112.26, 377.94 116.24 C379.56 120.22, 381.03 124.27, 382.33 128.35 C383.64 132.42, 384.79 136.55, 385.78 140.71 C386.77 144.86, 387.59 149.05, 388.25 153.26 C388.91 157.46, 389.41 161.7, 389.74 165.94 C390.07 170.18, 390.24 174.44, 390.24 178.69" stroke="#000000" stroke-width="4" fill="none"></path></g><g transform="translate(144.2977503373495 1838.7031936363128) rotate(0 152.4553680419922 96.54954577132935)"><text x="152.4553680419922" y="0" font-family="Helvetica, Segoe UI Emoji" font-size="55.970751171785196px" fill="#000000" text-anchor="middle" style="white-space: pre;" direction="ltr" dominant-baseline="text-before-edge">Governance</text><text x="152.4553680419922" y="64.36636384755298" font-family="Helvetica, Segoe UI Emoji" font-size="55.970751171785196px" fill="#000000" text-anchor="middle" style="white-space: pre;" direction="ltr" dominant-baseline="text-before-edge">or</text><text x="152.4553680419922" y="128.73272769510595" font-family="Helvetica, Segoe UI Emoji" font-size="55.970751171785196px" fill="#000000" text-anchor="middle" style="white-space: pre;" direction="ltr" dominant-baseline="text-before-edge">admin</text></g><g stroke-linecap="round" transform="translate(2145.018782208923 92.54546120894565) rotate(0 1190.693848035871 567.851951730855)"><path d="M32 0 C551.4 0, 1070.8 0, 2349.39 0 M2349.39 0 C2370.72 0, 2381.39 10.67, 2381.39 32 M2381.39 32 C2381.39 353.3, 2381.39 674.6, 2381.39 1103.7 M2381.39 1103.7 C2381.39 1125.04, 2370.72 1135.7, 2349.39 1135.7 M2349.39 1135.7 C1742.59 1135.7, 1135.79 1135.7, 32 1135.7 M32 1135.7 C10.67 1135.7, 0 1125.04, 0 1103.7 M0 1103.7 C0 850.72, 0 597.73, 0 32 M0 32 C0 10.67, 10.67 0, 32 0" stroke="#364fc7" stroke-width="4.5" fill="none" stroke-dasharray="8 12"></path></g><g stroke-linecap="round" transform="translate(2721.031542882957 258.52007417743494) rotate(0 553.6070329639311 130.4624886996097)"><path d="M32 0 C428.47 0, 824.93 0, 1075.21 0 M1075.21 0 C1096.55 0, 1107.21 10.67, 1107.21 32 M1107.21 32 C1107.21 82.47, 1107.21 132.93, 1107.21 228.92 M1107.21 228.92 C1107.21 250.26, 1096.55 260.92, 1075.21 260.92 M1075.21 260.92 C726.54 260.92, 377.86 260.92, 32 260.92 M32 260.92 C10.67 260.92, 0 250.26, 0 228.92 M0 228.92 C0 152.72, 0 76.52, 0 32 M0 32 C0 10.67, 10.67 0, 32 0" stroke="#1e1e1e" stroke-width="4.5" fill="none" stroke-dasharray="8 12"></path></g><g stroke-linecap="round" transform="translate(3260.3074571366396 132.83594748612222) rotate(0 620.1683771575537 525.6229994559712)"><path d="M32 0 C432.57 0, 833.14 0, 1208.34 0 M1208.34 0 C1229.67 0, 1240.34 10.67, 1240.34 32 M1240.34 32 C1240.34 332.52, 1240.34 633.05, 1240.34 1019.25 M1240.34 1019.25 C1240.34 1040.58, 1229.67 1051.25, 1208.34 1051.25 M1208.34 1051.25 C915.71 1051.25, 623.09 1051.25, 32 1051.25 M32 1051.25 C10.67 1051.25, 0 1040.58, 0 1019.25 M0 1019.25 C0 807.89, 0 596.53, 0 32 M0 32 C0 10.67, 10.67 0, 32 0" stroke="#e03131" stroke-width="4.5" fill="none" stroke-dasharray="8 12"></path></g><g transform="translate(1058.497666358132 696.784861369862) rotate(0 91.30859375 25.299999999999955)"><text x="91.30859375" y="0" font-family="Helvetica, Segoe UI Emoji" font-size="44px" fill="#e67700" text-anchor="middle" style="white-space: pre;" direction="ltr" dominant-baseline="text-before-edge">Yield Tier</text></g><g stroke-linecap="round" transform="translate(718.5916612739381 10) rotate(0 1922.6935049021085 1602.146731226949)"><path d="M32 0 C829 0, 1625.99 0, 3813.39 0 M3813.39 0 C3834.72 0, 3845.39 10.67, 3845.39 32 M3845.39 32 C3845.39 745.66, 3845.39 1459.33, 3845.39 3172.29 M3845.39 3172.29 C3845.39 3193.63, 3834.72 3204.29, 3813.39 3204.29 M3813.39 3204.29 C2365.37 3204.29, 917.35 3204.29, 32 3204.29 M32 3204.29 C10.67 3204.29, 0 3193.63, 0 3172.29 M0 3172.29 C0 2498.35, 0 1824.41, 0 32 M0 32 C0 10.67, 10.67 0, 32 0" stroke="#000000" stroke-width="4.5" fill="none" stroke-dasharray="8 12"></path></g><g stroke-linecap="round" transform="translate(759.5744369748343 1259.9884939768249) rotate(0 1527.7459161084698 922.7989404091959)"><path d="M32 0 C1225.56 0, 2419.12 0, 3023.49 0 M3023.49 0 C3044.83 0, 3055.49 10.67, 3055.49 32 M3055.49 32 C3055.49 468.31, 3055.49 904.62, 3055.49 1813.6 M3055.49 1813.6 C3055.49 1834.93, 3044.83 1845.6, 3023.49 1845.6 M3023.49 1845.6 C1866.85 1845.6, 710.21 1845.6, 32 1845.6 M32 1845.6 C10.67 1845.6, 0 1834.93, 0 1813.6 M0 1813.6 C0 1171.69, 0 529.79, 0 32 M0 32 C0 10.67, 10.67 0, 32 0" stroke="#087f5b" stroke-width="4.5" fill="none" stroke-dasharray="8 12"></path></g><g transform="translate(2446.681434832492 3133.016921633121) rotate(0 125.72802734375 33.34999999999991)"><text x="125.72802734375" y="0" font-family="Helvetica, Segoe UI Emoji" font-size="58px" fill="#000000" text-anchor="middle" style="white-space: pre;" direction="ltr" dominant-baseline="text-before-edge">Ethereum</text></g><g transform="translate(2134.0672174996594 3032.2782954195904) rotate(0 198.80859375 33.34999999999991)"><text x="198.80859375" y="0" font-family="Helvetica, Segoe UI Emoji" font-size="58px" fill="#087f5b" text-anchor="middle" style="white-space: pre;" direction="ltr" dominant-baseline="text-before-edge">Napier Tranche</text></g><g stroke-linecap="round"><g transform="translate(1435.014309567106 938.7802293205691) rotate(0 382.25514619236145 188.41218298545118)"><path d="M0 0 C127.42 62.8, 637.09 314.02, 764.51 376.82 M0 0 C127.42 62.8, 637.09 314.02, 764.51 376.82" stroke="#000000" stroke-width="4" fill="none"></path></g><g transform="translate(1435.014309567106 938.7802293205691) rotate(0 382.25514619236145 188.41218298545118)"><path d="M734.69 373.56 C745.03 374.69, 755.37 375.82, 764.51 376.82 M734.69 373.56 C746.43 374.85, 758.17 376.13, 764.51 376.82" stroke="#000000" stroke-width="4" fill="none"></path></g><g transform="translate(1435.014309567106 938.7802293205691) rotate(0 382.25514619236145 188.41218298545118)"><path d="M743.76 355.16 C750.95 362.67, 758.15 370.18, 764.51 376.82 M743.76 355.16 C751.93 363.69, 760.1 372.22, 764.51 376.82" stroke="#000000" stroke-width="4" fill="none"></path></g></g><mask></mask><g stroke-linecap="round"><g transform="translate(501.9979235011406 1894.6826440217797) rotate(0 855.8428857000013 -208.82290164432425)"><path d="M0 0 C285.28 -69.61, 1426.4 -348.04, 1711.69 -417.65 M0 0 C285.28 -69.61, 1426.4 -348.04, 1711.69 -417.65" stroke="#000000" stroke-width="4" fill="none"></path></g><g transform="translate(501.9979235011406 1894.6826440217797) rotate(0 855.8428857000013 -208.82290164432425)"><path d="M1686.73 -401 C1695.68 -406.96, 1704.62 -412.93, 1711.69 -417.65 M1686.73 -401 C1693.44 -405.47, 1700.14 -409.94, 1711.69 -417.65" stroke="#000000" stroke-width="4" fill="none"></path></g><g transform="translate(501.9979235011406 1894.6826440217797) rotate(0 855.8428857000013 -208.82290164432425)"><path d="M1681.87 -420.93 C1692.55 -419.75, 1703.24 -418.58, 1711.69 -417.65 M1681.87 -420.93 C1689.88 -420.05, 1697.89 -419.17, 1711.69 -417.65" stroke="#000000" stroke-width="4" fill="none"></path></g></g><mask></mask><g stroke-linecap="round"><g transform="translate(3229.550809476409 381.79140410316654) rotate(0 45.61835046645729 1.7669087870373232)"><path d="M-0.72 1.18 C14.56 1.94, 76.14 4.16, 91.4 4.47" stroke="#1e1e1e" stroke-width="4.5" fill="none" stroke-dasharray="8 12"></path></g><g transform="translate(3229.550809476409 381.79140410316654) rotate(0 45.61835046645729 1.7669087870373232)"><path d="M62.92 13.89 C72.78 11.73, 80.27 8.24, 91.4 4.47" stroke="#1e1e1e" stroke-width="4.5" fill="none"></path></g><g transform="translate(3229.550809476409 381.79140410316654) rotate(0 45.61835046645729 1.7669087870373232)"><path d="M63.53 -6.62 C73.2 -3.11, 80.52 -0.91, 91.4 4.47" stroke="#1e1e1e" stroke-width="4.5" fill="none"></path></g></g><mask></mask><g stroke-linecap="round"><g transform="translate(3211.368250736953 744.6724341879726) rotate(0 63.69717896164002 1.766908787037437)"><path d="M-0.95 0.03 C20.49 0.78, 106.39 3.82, 127.85 4.36" stroke="#1e1e1e" stroke-width="4.5" fill="none" stroke-dasharray="8 12"></path></g><g transform="translate(3211.368250736953 744.6724341879726) rotate(0 63.69717896164002 1.766908787037437)"><path d="M99.35 13.74 C106.01 12.55, 113.93 10.32, 127.85 4.36" stroke="#1e1e1e" stroke-width="4.5" fill="none"></path></g><g transform="translate(3211.368250736953 744.6724341879726) rotate(0 63.69717896164002 1.766908787037437)"><path d="M99.99 -6.77 C106.47 -3.22, 114.24 -0.7, 127.85 4.36" stroke="#1e1e1e" stroke-width="4.5" fill="none"></path></g></g><mask></mask></svg>